<svg id="svg" version="1.1" xmlns="http://www.w3.org/2000/svg" xmlns:xlink="http://www.w3.org/1999/xlink" width="400" height="400" viewBox="0, 0, 400,400"><g id="svgg"><path id="path0" d="M179.800 80.653 C 174.517 81.471,168.885 84.929,165.672 89.324 C 164.037 91.563,163.187 93.258,160.972 98.698 C 160.188 100.624,159.302 102.740,159.003 103.400 C 158.704 104.060,156.903 108.290,155.000 112.800 C 153.097 117.310,151.299 121.540,151.003 122.200 C 150.707 122.860,149.910 124.628,149.232 126.128 C 148.555 127.628,148.000 128.921,148.000 129.000 C 148.000 129.079,147.445 130.372,146.768 131.872 C 145.017 135.747,144.613 136.672,143.392 139.600 C 142.796 141.030,141.983 142.920,141.587 143.800 C 141.190 144.680,140.311 146.628,139.633 148.128 C 138.955 149.628,138.400 150.921,138.400 151.000 C 138.400 151.079,137.845 152.372,137.168 153.872 C 135.930 156.613,135.762 156.988,133.804 161.400 C 133.219 162.720,132.393 164.563,131.970 165.496 C 131.546 166.428,131.200 167.299,131.200 167.431 C 131.200 167.563,130.660 168.837,130.000 170.263 C 129.340 171.689,128.800 173.077,128.800 173.348 C 128.800 173.619,128.651 174.011,128.469 174.220 C 128.287 174.429,127.279 176.940,126.228 179.800 C 125.178 182.660,124.164 185.360,123.975 185.800 C 123.224 187.551,119.495 199.186,118.534 202.780 C 116.358 210.919,115.993 215.414,116.990 221.800 C 117.808 227.037,118.783 231.186,121.338 240.299 L 121.927 242.398 120.663 243.284 C 118.727 244.643,117.207 248.010,112.306 261.800 C 112.072 262.460,111.661 263.540,111.394 264.200 C 109.837 268.047,103.878 283.937,102.944 286.733 C 102.601 287.760,102.089 289.140,101.807 289.800 C 101.524 290.460,100.268 293.790,99.016 297.200 C 97.763 300.610,96.496 304.030,96.199 304.800 C 93.789 311.055,93.459 312.332,93.556 315.044 C 93.608 316.525,95.668 318.732,97.677 319.460 C 99.171 320.001,117.250 320.069,148.474 319.650 L 167.149 319.400 168.338 318.260 C 168.992 317.634,170.103 315.744,170.807 314.060 C 171.512 312.377,172.243 310.640,172.433 310.200 C 172.623 309.760,173.148 308.410,173.600 307.200 C 174.052 305.990,174.621 304.550,174.865 304.000 C 175.480 302.608,175.666 302.146,178.227 295.600 C 180.473 289.862,181.032 288.488,182.200 285.840 C 182.530 285.091,182.800 284.227,182.800 283.920 C 182.800 283.612,182.949 283.189,183.132 282.980 C 183.314 282.771,184.066 280.980,184.803 279.000 C 185.539 277.020,186.324 275.160,186.548 274.867 C 186.771 274.573,187.054 273.055,187.177 271.493 L 187.400 268.653 189.600 267.462 C 193.067 265.585,194.410 264.585,197.303 261.722 L 200.006 259.047 202.496 261.568 C 205.217 264.323,207.518 266.033,210.600 267.592 L 212.600 268.603 212.860 271.512 C 213.003 273.112,213.284 274.642,213.485 274.911 C 213.686 275.180,214.358 276.750,214.978 278.400 C 215.598 280.050,216.336 281.940,216.619 282.600 C 216.901 283.260,218.150 286.410,219.393 289.600 C 220.637 292.790,221.817 295.760,222.016 296.200 C 222.215 296.640,222.748 297.990,223.200 299.200 C 223.652 300.410,224.179 301.760,224.370 302.200 C 225.297 304.329,226.065 306.225,228.016 311.200 C 229.483 314.939,230.546 317.031,231.474 318.000 L 232.813 319.400 267.907 319.400 C 306.840 319.400,303.717 319.606,305.755 316.905 C 306.679 315.679,306.685 311.875,305.766 309.758 C 305.394 308.901,304.956 307.840,304.792 307.400 C 304.629 306.960,304.218 305.880,303.879 305.000 C 303.539 304.120,302.237 300.610,300.984 297.200 C 299.732 293.790,298.476 290.460,298.193 289.800 C 297.911 289.140,297.409 287.790,297.078 286.800 C 296.747 285.810,296.256 284.460,295.988 283.800 C 295.210 281.885,295.003 281.336,292.600 274.800 C 291.347 271.390,290.069 268.033,289.761 267.340 C 289.452 266.646,289.200 265.827,289.200 265.520 C 289.200 265.212,289.050 264.789,288.866 264.580 C 288.682 264.371,288.250 263.390,287.906 262.400 C 286.484 258.311,282.655 248.083,281.964 246.528 C 281.556 245.608,280.519 244.291,279.660 243.600 C 278.020 242.283,277.933 241.252,279.201 238.200 C 279.383 237.760,279.927 235.870,280.408 234.000 C 283.708 221.184,284.324 212.557,282.391 206.200 C 282.190 205.540,281.734 203.920,281.377 202.600 C 280.620 199.797,276.536 186.971,276.028 185.800 C 275.837 185.360,274.822 182.660,273.772 179.800 C 272.721 176.940,271.713 174.429,271.531 174.220 C 271.349 174.011,271.200 173.619,271.200 173.348 C 271.200 173.077,270.645 171.628,269.967 170.128 C 269.289 168.628,268.389 166.637,267.967 165.704 C 267.545 164.772,267.200 163.909,267.200 163.788 C 267.200 163.666,266.650 162.359,265.979 160.883 C 265.307 159.407,264.599 157.840,264.404 157.400 C 264.210 156.960,263.499 155.372,262.825 153.872 C 262.151 152.372,261.600 151.079,261.600 151.000 C 261.600 150.921,261.045 149.628,260.368 148.128 C 259.130 145.387,258.962 145.012,257.004 140.600 C 256.419 139.280,255.615 137.480,255.218 136.600 C 254.821 135.720,253.863 133.470,253.090 131.600 C 252.317 129.730,251.118 126.964,250.426 125.454 C 249.733 123.943,248.286 120.599,247.209 118.022 C 246.132 115.445,244.780 112.271,244.203 110.968 C 243.136 108.559,242.991 108.221,241.814 105.400 C 241.446 104.520,240.983 103.440,240.784 103.000 C 240.585 102.560,240.076 101.300,239.654 100.200 C 239.231 99.100,238.416 97.177,237.843 95.926 C 237.269 94.675,236.800 93.536,236.800 93.396 C 236.800 93.255,236.013 91.923,235.051 90.436 C 227.820 79.258,212.228 77.044,201.900 85.728 L 200.000 87.325 198.100 85.728 C 193.194 81.603,186.196 79.662,179.800 80.653 M187.800 93.464 C 190.216 94.600,192.314 97.088,193.174 99.836 C 194.001 102.479,193.623 104.676,190.601 114.800 C 189.574 118.242,189.176 119.656,188.670 121.667 C 188.411 122.694,188.065 123.669,187.900 123.834 C 187.735 123.998,187.600 124.457,187.600 124.853 C 187.600 125.248,187.354 126.343,187.052 127.286 C 186.519 128.955,185.604 132.156,184.732 135.400 C 184.250 137.195,183.356 140.388,182.829 142.200 C 182.481 143.396,181.579 146.583,180.623 150.000 C 180.345 150.990,179.802 152.970,179.414 154.400 C 178.140 159.104,178.200 159.022,175.340 159.961 C 168.742 162.127,163.723 167.125,160.872 174.368 L 159.836 177.000 159.696 195.493 C 159.541 216.003,159.517 215.788,162.156 217.788 C 164.244 219.370,167.679 219.315,169.521 217.671 C 171.930 215.519,172.000 214.909,172.000 195.930 C 172.000 180.817,172.078 178.607,172.655 177.480 C 177.023 168.941,188.038 168.597,192.613 176.856 L 193.800 179.000 193.800 211.400 C 193.800 247.814,193.939 246.004,190.782 250.732 C 187.592 255.509,181.439 258.794,175.668 258.803 C 170.178 258.810,160.296 256.656,154.600 254.209 C 153.940 253.926,152.770 253.466,152.000 253.187 C 151.230 252.908,150.060 252.456,149.400 252.181 C 148.740 251.907,146.760 251.114,145.000 250.420 C 143.240 249.726,141.440 249.006,141.000 248.821 C 140.560 248.636,139.305 248.121,138.211 247.676 C 136.704 247.063,136.140 246.592,135.882 245.733 C 135.695 245.110,135.388 244.240,135.201 243.800 C 135.014 243.360,134.556 241.920,134.184 240.600 C 133.812 239.280,133.277 237.480,132.995 236.600 C 132.713 235.720,132.293 234.280,132.060 233.400 C 131.828 232.520,131.366 230.810,131.033 229.600 C 130.476 227.571,129.955 225.222,128.831 219.669 C 128.301 217.050,128.278 213.968,128.773 212.046 C 128.978 211.251,129.450 209.340,129.821 207.800 C 130.787 203.797,134.074 193.257,135.186 190.600 C 135.370 190.160,136.558 187.010,137.827 183.600 C 139.096 180.190,140.644 176.291,141.267 174.935 C 141.890 173.580,142.400 172.363,142.400 172.231 C 142.400 172.099,142.745 171.228,143.167 170.296 C 145.957 164.129,146.400 163.129,146.400 162.996 C 146.400 162.914,147.120 161.296,148.000 159.400 C 148.880 157.504,149.600 155.886,149.600 155.804 C 149.600 155.671,150.160 154.407,152.858 148.450 C 153.294 147.488,153.988 145.845,154.400 144.800 C 154.812 143.755,155.506 142.112,155.942 141.150 C 158.634 135.206,159.200 133.929,159.200 133.800 C 159.200 133.721,159.751 132.428,160.425 130.928 C 161.099 129.428,161.795 127.840,161.972 127.400 C 162.394 126.349,162.929 125.109,164.203 122.232 C 164.780 120.929,166.158 117.693,167.267 115.041 C 168.375 112.388,169.606 109.493,170.002 108.609 C 170.398 107.724,171.595 104.869,172.661 102.264 C 176.177 93.676,181.577 90.537,187.800 93.464 M221.000 93.677 C 223.686 95.019,225.246 97.084,227.160 101.833 C 228.128 104.235,229.319 107.100,229.807 108.200 C 230.295 109.300,231.100 111.190,231.596 112.400 C 232.091 113.610,232.813 115.320,233.200 116.200 C 233.587 117.080,234.663 119.600,235.592 121.800 C 237.514 126.354,237.861 127.150,239.568 130.928 C 240.245 132.428,240.800 133.721,240.800 133.800 C 240.800 133.879,241.351 135.172,242.025 136.672 C 242.699 138.172,243.405 139.760,243.593 140.200 C 243.781 140.640,244.400 142.024,244.968 143.275 C 245.535 144.527,246.000 145.647,246.000 145.764 C 246.000 145.882,246.436 146.928,246.968 148.089 C 249.049 152.625,250.400 155.662,250.400 155.804 C 250.400 155.886,251.120 157.504,252.000 159.400 C 252.880 161.296,253.600 162.922,253.600 163.013 C 253.600 163.104,254.036 164.128,254.568 165.289 C 257.028 170.651,258.000 172.879,258.000 173.153 C 258.000 173.317,258.422 174.339,258.939 175.425 C 259.455 176.511,260.913 180.190,262.178 183.600 C 263.444 187.010,264.630 190.160,264.814 190.600 C 265.284 191.724,268.251 200.670,268.794 202.600 C 271.752 213.123,271.939 214.803,270.863 221.200 C 270.442 223.707,268.720 230.642,267.388 235.200 C 267.034 236.410,266.597 237.940,266.417 238.600 C 266.237 239.260,265.568 241.391,264.930 243.335 L 263.770 246.870 261.785 247.677 C 260.693 248.121,259.440 248.636,259.000 248.821 C 258.560 249.006,256.760 249.723,255.000 250.413 C 253.240 251.104,251.440 251.812,251.000 251.987 C 250.560 252.161,249.480 252.575,248.600 252.907 C 245.810 253.958,243.426 254.885,242.600 255.239 C 238.667 256.925,228.897 258.831,224.400 258.788 C 215.890 258.709,208.109 252.431,206.416 244.279 C 206.118 242.844,206.016 232.217,206.091 210.591 L 206.200 179.000 207.284 176.945 C 210.941 170.011,219.432 168.833,225.156 174.466 C 227.851 177.118,227.848 177.093,228.161 196.730 C 228.352 208.683,228.596 214.809,228.908 215.530 C 230.456 219.107,234.679 220.118,237.942 217.692 C 240.474 215.811,240.466 215.889,240.303 195.453 L 240.156 177.000 239.111 174.333 C 236.287 167.124,228.187 159.600,223.249 159.600 C 222.005 159.600,221.252 157.520,217.751 144.400 C 217.429 143.190,217.012 141.660,216.825 141.000 C 216.639 140.340,216.208 138.810,215.868 137.600 C 215.528 136.390,214.504 132.790,213.592 129.600 C 212.681 126.410,211.840 123.440,211.724 123.000 C 211.608 122.560,211.012 120.490,210.400 118.400 C 209.788 116.310,209.190 114.240,209.071 113.800 C 208.951 113.360,208.563 112.010,208.208 110.800 C 206.213 104.007,205.989 102.130,206.862 99.560 C 208.866 93.664,215.472 90.915,221.000 93.677 M200.606 128.500 C 200.770 128.995,201.137 130.210,201.422 131.200 C 201.707 132.190,202.125 133.630,202.352 134.400 C 202.579 135.170,203.029 136.790,203.351 138.000 C 203.674 139.210,204.686 142.810,205.600 146.000 C 206.514 149.190,207.526 152.790,207.849 154.000 C 209.559 160.411,209.637 159.761,206.999 161.053 C 205.788 161.646,203.718 163.001,202.399 164.064 L 200.000 165.997 197.601 164.064 C 196.282 163.001,194.212 161.646,193.001 161.053 C 191.791 160.460,190.800 159.746,190.800 159.467 C 190.800 158.807,193.127 150.184,195.406 142.400 C 195.760 141.190,196.317 139.210,196.643 138.000 C 196.969 136.790,197.421 135.170,197.648 134.400 C 197.875 133.630,198.293 132.190,198.578 131.200 C 199.436 128.216,199.679 127.600,200.000 127.600 C 200.169 127.600,200.441 128.005,200.606 128.500 " stroke="none" fill="#74e48c" fill-rule="evenodd"></path><path id="path1" d="M0.000 200.000 L 0.000 400.000 200.000 400.000 L 400.000 400.000 400.000 200.000 L 400.000 0.000 200.000 0.000 L 0.000 0.000 0.000 200.000 M187.427 80.015 C 188.732 80.244,190.160 80.571,190.600 80.744 C 193.213 81.766,196.919 83.825,198.347 85.047 L 200.000 86.462 201.653 85.047 C 203.038 83.862,205.064 82.720,209.230 80.775 C 211.945 79.507,220.858 79.493,223.538 80.752 C 231.162 84.333,234.489 87.330,237.186 93.046 C 238.109 95.001,239.030 96.913,239.232 97.295 C 239.434 97.677,239.600 98.167,239.600 98.384 C 239.600 98.601,240.042 99.728,240.582 100.889 C 241.123 102.050,241.914 103.900,242.340 105.000 C 242.766 106.100,243.594 108.080,244.180 109.400 C 245.656 112.725,245.854 113.180,246.614 115.000 C 246.981 115.880,247.432 116.960,247.615 117.400 C 247.799 117.840,248.501 119.428,249.175 120.928 C 249.849 122.428,250.400 123.728,250.400 123.817 C 250.400 123.906,250.864 125.018,251.430 126.289 C 251.997 127.560,252.692 129.140,252.974 129.800 C 253.781 131.685,254.276 132.821,255.412 135.400 C 256.943 138.876,257.394 139.886,258.768 142.928 C 259.445 144.428,260.000 145.721,260.000 145.800 C 260.000 145.879,260.551 147.172,261.225 148.672 C 261.899 150.172,262.605 151.760,262.793 152.200 C 262.982 152.640,263.690 154.215,264.368 155.701 C 265.046 157.187,265.600 158.491,265.600 158.599 C 265.600 158.708,266.230 160.161,267.000 161.828 C 267.770 163.495,268.400 164.923,268.400 165.001 C 268.400 165.080,268.951 166.372,269.625 167.872 C 270.961 170.846,271.161 171.320,272.206 174.000 C 272.593 174.990,273.154 176.367,273.454 177.060 C 273.754 177.754,274.000 178.573,274.000 178.880 C 274.000 179.188,274.150 179.611,274.334 179.820 C 274.518 180.029,274.982 181.100,275.365 182.200 C 275.748 183.300,276.218 184.560,276.408 185.000 C 276.598 185.440,277.602 188.410,278.638 191.600 C 279.674 194.790,280.654 197.760,280.817 198.200 C 280.979 198.640,281.413 200.170,281.782 201.600 C 282.150 203.030,282.615 204.740,282.814 205.400 C 284.557 211.165,284.559 219.467,282.820 226.600 C 281.962 230.120,280.703 235.119,280.149 237.200 C 279.828 238.410,279.398 240.030,279.195 240.800 C 278.892 241.946,278.950 242.290,279.512 242.695 C 281.492 244.121,282.318 245.461,283.933 249.870 C 284.887 252.471,285.922 255.167,286.233 255.860 C 286.545 256.554,286.800 257.398,286.800 257.737 C 286.800 258.076,286.959 258.451,287.152 258.570 C 287.346 258.690,287.598 259.196,287.713 259.694 C 287.923 260.608,289.701 265.519,290.357 267.000 C 290.552 267.440,291.294 269.420,292.006 271.400 C 292.718 273.380,293.521 275.540,293.790 276.200 C 294.060 276.860,294.508 278.030,294.787 278.800 C 295.066 279.570,295.543 280.767,295.847 281.460 C 296.151 282.154,296.400 282.921,296.400 283.166 C 296.400 283.411,296.570 283.923,296.778 284.305 C 296.986 284.687,298.172 287.790,299.414 291.200 C 300.656 294.610,301.925 297.967,302.236 298.660 C 302.546 299.354,302.800 300.121,302.800 300.366 C 302.800 300.611,302.962 301.123,303.159 301.505 C 303.356 301.887,303.825 303.010,304.200 304.000 C 304.575 304.990,305.044 306.113,305.241 306.495 C 305.438 306.877,305.601 307.417,305.602 307.695 C 305.604 307.973,305.906 308.740,306.273 309.400 C 307.337 311.310,307.238 315.867,306.097 317.466 C 303.896 320.551,305.856 320.400,268.061 320.400 C 227.024 320.400,231.350 321.319,227.594 311.800 C 226.899 310.040,226.176 308.240,225.987 307.800 C 225.797 307.360,225.077 305.560,224.387 303.800 C 223.696 302.040,222.976 300.240,222.787 299.800 C 222.597 299.360,221.874 297.560,221.180 295.800 C 220.486 294.040,219.666 292.033,219.359 291.340 C 219.051 290.646,218.800 289.915,218.800 289.714 C 218.800 289.514,218.350 288.417,217.800 287.277 C 217.250 286.137,216.800 284.944,216.800 284.626 C 216.800 284.307,216.634 283.945,216.431 283.819 C 216.228 283.694,215.935 283.014,215.780 282.309 C 215.625 281.603,215.340 280.750,215.147 280.413 C 213.918 278.271,211.959 272.118,212.060 270.716 C 212.170 269.199,212.103 269.104,210.255 268.168 C 207.290 266.664,203.443 263.777,201.637 261.699 L 200.000 259.816 198.363 261.699 C 196.564 263.770,192.713 266.663,189.774 268.153 L 187.884 269.111 187.817 271.455 C 187.780 272.745,187.428 274.520,187.034 275.400 C 185.823 278.108,185.648 278.530,184.800 280.800 C 184.348 282.010,183.818 283.360,183.624 283.800 C 183.429 284.240,182.704 286.040,182.013 287.800 C 181.323 289.560,180.603 291.360,180.413 291.800 C 180.224 292.240,179.504 294.040,178.813 295.800 C 178.123 297.560,177.409 299.360,177.227 299.800 C 177.045 300.240,176.583 301.410,176.200 302.400 C 175.499 304.215,175.324 304.651,174.281 307.200 C 173.966 307.970,173.393 309.410,173.006 310.400 C 170.225 317.530,169.395 318.825,166.956 319.844 C 164.423 320.902,98.754 320.643,96.529 319.566 C 93.343 318.023,91.877 313.609,93.471 310.361 C 93.731 309.832,94.342 308.230,94.829 306.800 C 96.248 302.638,96.634 301.632,96.926 301.341 C 97.077 301.190,97.200 300.809,97.200 300.494 C 97.200 300.179,97.453 299.354,97.763 298.660 C 98.073 297.967,99.076 295.330,99.991 292.800 C 102.065 287.070,102.784 285.190,103.241 284.305 C 103.438 283.923,103.600 283.411,103.600 283.166 C 103.600 282.921,103.849 282.154,104.153 281.460 C 104.457 280.767,104.934 279.570,105.213 278.800 C 105.492 278.030,105.940 276.860,106.210 276.200 C 106.479 275.540,107.282 273.380,107.994 271.400 C 108.706 269.420,109.448 267.440,109.643 267.000 C 110.299 265.519,112.077 260.608,112.287 259.694 C 112.402 259.196,112.654 258.690,112.848 258.570 C 113.041 258.451,113.200 258.076,113.200 257.737 C 113.200 257.398,113.449 256.554,113.753 255.860 C 114.057 255.167,114.534 253.970,114.813 253.200 C 115.092 252.430,115.545 251.260,115.819 250.600 C 116.094 249.940,116.646 248.446,117.045 247.281 C 117.716 245.325,118.751 243.946,120.488 242.695 C 121.050 242.290,121.108 241.946,120.805 240.800 C 120.602 240.030,120.172 238.410,119.851 237.200 C 119.529 235.990,118.885 233.470,118.421 231.600 C 117.956 229.730,117.402 227.570,117.191 226.800 C 115.430 220.388,115.430 211.336,117.192 205.400 C 117.388 204.740,117.850 203.030,118.218 201.600 C 118.587 200.170,119.022 198.640,119.184 198.200 C 119.347 197.760,120.355 194.700,121.424 191.400 C 122.493 188.100,123.498 185.130,123.659 184.800 C 123.819 184.470,124.435 182.850,125.027 181.200 C 125.619 179.550,126.326 177.660,126.597 177.000 C 126.869 176.340,127.407 174.990,127.794 174.000 C 128.839 171.320,129.039 170.846,130.375 167.872 C 131.049 166.372,131.600 165.056,131.600 164.947 C 131.600 164.839,132.065 163.727,132.632 162.475 C 133.200 161.224,133.819 159.840,134.007 159.400 C 134.195 158.960,134.901 157.372,135.575 155.872 C 136.249 154.372,136.800 153.079,136.800 153.000 C 136.800 152.921,137.355 151.628,138.032 150.128 C 138.710 148.628,139.503 146.860,139.793 146.200 C 140.084 145.540,140.686 144.190,141.131 143.200 C 141.575 142.210,142.419 140.320,143.004 139.000 C 143.590 137.680,144.315 136.060,144.616 135.400 C 144.917 134.740,145.513 133.300,145.939 132.200 C 146.365 131.100,147.197 129.120,147.787 127.800 C 149.750 123.407,149.925 123.014,150.980 120.600 C 151.558 119.280,152.203 117.887,152.415 117.505 C 152.627 117.123,152.800 116.633,152.800 116.416 C 152.800 116.199,153.236 115.072,153.768 113.911 C 156.337 108.311,157.200 106.313,157.200 105.967 C 157.200 105.759,157.372 105.277,157.582 104.895 C 158.326 103.543,160.400 98.739,160.400 98.367 C 160.400 98.159,160.566 97.677,160.768 97.295 C 160.970 96.913,161.891 95.001,162.814 93.046 C 165.532 87.286,169.704 83.559,176.600 80.728 C 178.975 79.753,184.027 79.421,187.427 80.015 M180.274 93.780 C 178.713 94.336,177.408 95.269,176.495 96.480 C 176.213 96.855,175.725 97.418,175.411 97.732 C 175.097 98.046,174.721 98.777,174.575 99.355 C 174.430 99.934,174.151 100.506,173.956 100.627 C 173.760 100.748,173.600 101.094,173.600 101.396 C 173.600 101.899,171.681 106.463,170.782 108.095 C 170.572 108.477,170.400 108.959,170.400 109.167 C 170.400 109.374,169.849 110.772,169.175 112.272 C 167.850 115.222,167.272 116.551,166.774 117.800 C 166.291 119.009,165.378 121.133,164.195 123.800 C 163.610 125.120,162.865 126.830,162.541 127.600 C 162.217 128.370,161.692 129.510,161.376 130.132 C 161.059 130.755,160.800 131.418,160.800 131.605 C 160.800 131.791,160.245 133.172,159.568 134.672 C 158.330 137.413,158.162 137.788,156.204 142.200 C 155.619 143.520,154.815 145.320,154.418 146.200 C 154.021 147.080,153.056 149.349,152.273 151.243 C 151.491 153.137,150.209 156.075,149.425 157.772 C 148.641 159.470,148.000 160.923,148.000 161.001 C 148.000 161.080,147.445 162.372,146.768 163.872 C 144.745 168.349,142.532 173.362,142.031 174.600 C 141.853 175.040,141.508 175.850,141.265 176.400 C 141.021 176.950,140.452 178.390,140.000 179.600 C 139.548 180.810,139.016 182.160,138.819 182.600 C 138.412 183.507,135.437 191.673,134.521 194.400 C 134.188 195.390,133.780 196.560,133.614 197.000 C 133.448 197.440,133.021 198.790,132.665 200.000 C 132.310 201.210,131.745 203.061,131.409 204.114 C 131.074 205.167,130.800 206.346,130.800 206.734 C 130.800 207.122,130.633 207.611,130.428 207.820 C 129.485 208.785,129.057 216.084,129.703 220.200 C 130.392 224.589,131.546 229.574,132.968 234.300 C 133.316 235.455,133.885 237.345,134.233 238.500 C 134.581 239.655,134.965 241.050,135.087 241.600 C 135.208 242.150,135.447 242.780,135.618 243.000 C 135.789 243.220,136.057 244.089,136.215 244.932 C 136.378 245.804,136.781 246.555,137.151 246.675 C 137.508 246.791,138.340 247.113,139.000 247.391 C 139.660 247.668,141.550 248.401,143.200 249.020 C 144.850 249.638,146.371 250.292,146.580 250.472 C 146.789 250.653,147.212 250.800,147.520 250.800 C 147.827 250.800,148.646 251.046,149.340 251.346 C 150.033 251.646,151.410 252.210,152.400 252.600 C 153.390 252.990,154.740 253.539,155.400 253.821 C 156.423 254.258,159.515 255.262,164.600 256.808 C 175.208 260.034,188.368 256.144,191.247 248.932 C 193.348 243.671,193.200 246.492,193.200 211.681 L 193.200 179.550 192.207 177.452 C 188.380 169.361,177.226 169.567,173.350 177.800 L 172.408 179.800 172.404 197.025 C 172.400 213.385,172.360 214.332,171.606 215.893 C 169.320 220.624,162.766 220.844,159.986 216.284 C 158.238 213.417,158.946 175.380,160.792 173.000 C 160.962 172.780,161.236 172.150,161.400 171.600 C 162.682 167.301,169.526 161.203,175.104 159.390 C 177.252 158.691,177.892 157.918,178.570 155.200 C 178.707 154.650,179.100 153.210,179.442 152.000 C 179.784 150.790,180.301 148.900,180.592 147.800 C 180.882 146.700,181.427 144.720,181.803 143.400 C 182.179 142.080,182.634 140.460,182.815 139.800 C 182.996 139.140,183.435 137.610,183.791 136.400 C 184.877 132.700,186.429 127.088,186.832 125.400 C 187.042 124.520,187.378 123.440,187.577 123.000 C 187.777 122.560,188.034 121.750,188.148 121.200 C 188.263 120.650,188.652 119.210,189.014 118.000 C 189.375 116.790,189.851 115.080,190.070 114.200 C 190.289 113.320,190.613 112.240,190.790 111.800 C 190.967 111.360,191.422 109.830,191.801 108.400 C 192.180 106.970,192.676 105.294,192.903 104.676 C 195.201 98.429,187.023 91.372,180.274 93.780 M213.000 93.796 C 210.785 94.573,208.243 97.463,207.390 100.176 C 206.717 102.315,206.737 103.174,207.524 106.000 C 208.257 108.633,209.162 111.799,209.809 114.000 C 210.164 115.210,210.604 116.740,210.785 117.400 C 210.966 118.060,211.420 119.680,211.793 121.000 C 212.167 122.320,212.651 124.120,212.870 125.000 C 213.089 125.880,213.413 126.960,213.590 127.400 C 213.767 127.840,214.227 129.370,214.612 130.800 C 214.997 132.230,215.557 134.171,215.856 135.114 C 216.155 136.057,216.400 137.171,216.400 137.590 C 216.400 138.010,216.580 138.464,216.800 138.600 C 217.020 138.736,217.200 139.190,217.200 139.610 C 217.200 140.029,217.444 141.143,217.742 142.086 C 218.041 143.029,218.480 144.520,218.718 145.400 C 218.957 146.280,219.406 147.900,219.717 149.000 C 220.027 150.100,220.595 152.170,220.978 153.600 C 222.073 157.689,222.638 158.746,223.889 159.044 C 229.054 160.276,236.107 166.059,238.228 170.800 C 238.572 171.570,239.022 172.560,239.228 173.000 C 240.703 176.161,240.791 177.484,240.796 196.514 C 240.800 216.809,240.875 216.067,238.610 218.142 C 236.331 220.230,232.263 220.131,229.913 217.930 C 227.639 215.800,227.629 215.707,227.510 196.600 C 227.402 179.242,227.388 178.977,226.504 177.324 C 222.350 169.552,211.495 169.626,207.793 177.452 L 206.800 179.550 206.800 211.681 C 206.800 246.492,206.652 243.671,208.753 248.932 C 211.643 256.171,224.662 260.016,235.400 256.802 C 239.683 255.520,243.570 254.261,244.600 253.821 C 245.260 253.539,246.610 252.990,247.600 252.600 C 248.590 252.210,249.967 251.646,250.660 251.346 C 251.354 251.046,252.173 250.800,252.480 250.800 C 252.788 250.800,253.211 250.651,253.420 250.468 C 253.629 250.286,255.420 249.529,257.400 248.787 C 262.637 246.825,263.307 246.387,263.859 244.571 C 264.122 243.707,264.820 241.470,265.411 239.600 C 266.002 237.730,266.725 235.300,267.018 234.200 C 267.311 233.100,268.032 230.400,268.620 228.200 C 270.805 220.029,271.296 209.565,269.575 207.820 C 269.369 207.611,269.200 207.122,269.200 206.734 C 269.200 206.346,268.926 205.167,268.591 204.114 C 268.255 203.061,267.690 201.210,267.335 200.000 C 266.979 198.790,266.552 197.440,266.386 197.000 C 266.220 196.560,265.782 195.300,265.411 194.200 C 265.041 193.100,264.591 191.840,264.411 191.400 C 264.232 190.960,263.770 189.700,263.386 188.600 C 262.620 186.406,258.572 175.879,258.002 174.600 C 257.806 174.160,257.170 172.720,256.588 171.400 C 256.007 170.080,255.290 168.460,254.995 167.800 C 254.701 167.140,253.981 165.520,253.395 164.200 C 251.485 159.892,251.279 159.432,250.032 156.672 C 249.355 155.172,248.800 153.879,248.800 153.800 C 248.800 153.721,248.249 152.428,247.575 150.928 C 246.901 149.428,246.205 147.840,246.028 147.400 C 245.536 146.173,243.929 142.485,242.195 138.600 C 241.901 137.940,241.177 136.320,240.588 135.000 C 239.999 133.680,238.884 131.074,238.111 129.209 C 237.338 127.344,236.264 124.824,235.723 123.609 C 235.183 122.394,234.472 120.770,234.143 120.000 C 233.815 119.230,233.354 118.150,233.119 117.600 C 232.885 117.050,232.547 116.240,232.369 115.800 C 232.191 115.360,231.566 113.920,230.980 112.600 C 230.394 111.280,229.566 109.300,229.140 108.200 C 228.714 107.100,227.923 105.250,227.382 104.089 C 226.842 102.928,226.400 101.724,226.400 101.413 C 226.400 101.102,226.234 100.745,226.031 100.619 C 225.828 100.494,225.543 99.853,225.399 99.195 C 225.255 98.538,224.971 98.000,224.768 98.000 C 224.566 98.000,224.400 97.745,224.400 97.434 C 224.400 94.765,216.986 92.399,213.000 93.796 M199.451 130.067 C 198.839 132.260,197.917 135.635,197.613 136.800 C 197.412 137.570,196.994 139.100,196.683 140.200 C 196.373 141.300,195.802 143.370,195.415 144.800 C 195.028 146.230,194.567 147.760,194.390 148.200 C 194.213 148.640,193.890 149.720,193.672 150.600 C 193.454 151.480,192.902 153.550,192.447 155.200 C 191.285 159.409,191.327 159.666,193.310 160.570 C 195.134 161.401,197.149 162.765,198.900 164.352 L 200.000 165.350 201.100 164.352 C 202.851 162.765,204.866 161.401,206.690 160.570 C 208.598 159.700,208.783 158.962,207.788 156.200 C 207.471 155.320,207.209 154.206,207.206 153.724 C 207.203 153.242,207.041 152.749,206.846 152.629 C 206.652 152.508,206.365 151.553,206.209 150.505 C 206.053 149.457,205.786 148.420,205.616 148.200 C 205.446 147.980,205.215 147.350,205.102 146.800 C 204.989 146.250,204.587 144.720,204.208 143.400 C 203.829 142.080,203.279 140.100,202.985 139.000 C 202.691 137.900,202.153 136.010,201.789 134.800 C 201.426 133.590,201.009 131.985,200.863 131.233 C 200.591 129.832,199.718 129.112,199.451 130.067 " stroke="none" fill="#dcece3" fill-rule="evenodd"></path><path id="path2" d="M179.822 80.347 C 179.174 80.486,180.848 80.600,183.542 80.600 C 186.237 80.600,188.027 80.483,187.520 80.340 C 186.353 80.010,181.373 80.015,179.822 80.347 M212.476 80.340 C 211.968 80.483,213.734 80.600,216.400 80.600 C 219.066 80.600,220.832 80.483,220.324 80.340 C 219.816 80.197,218.050 80.080,216.400 80.080 C 214.750 80.080,212.984 80.197,212.476 80.340 M198.200 85.748 C 199.080 86.540,199.890 87.188,200.000 87.188 C 200.110 87.188,200.920 86.540,201.800 85.748 C 202.680 84.956,203.040 84.545,202.600 84.835 C 202.160 85.125,201.395 85.717,200.900 86.151 C 200.004 86.936,199.996 86.936,199.100 86.151 C 198.605 85.717,197.840 85.125,197.400 84.835 C 196.960 84.545,197.320 84.956,198.200 85.748 M167.578 86.700 L 166.200 88.200 167.700 86.822 C 168.525 86.063,169.200 85.388,169.200 85.322 C 169.200 85.016,168.862 85.304,167.578 86.700 M232.000 86.600 C 232.746 87.370,233.447 88.000,233.557 88.000 C 233.667 88.000,233.146 87.370,232.400 86.600 C 231.654 85.830,230.953 85.200,230.843 85.200 C 230.733 85.200,231.254 85.830,232.000 86.600 M164.800 90.000 C 164.330 90.660,164.036 91.200,164.146 91.200 C 164.256 91.200,164.730 90.660,165.200 90.000 C 165.670 89.340,165.964 88.800,165.854 88.800 C 165.744 88.800,165.270 89.340,164.800 90.000 M235.231 90.727 C 235.940 91.867,236.594 92.800,236.685 92.800 C 236.973 92.800,235.053 89.576,234.485 89.104 C 234.187 88.857,234.522 89.587,235.231 90.727 M174.647 97.628 C 173.649 99.317,173.996 99.417,175.082 97.752 C 175.566 97.008,175.830 96.400,175.668 96.400 C 175.505 96.400,175.046 96.952,174.647 97.628 M193.328 102.800 C 193.328 104.230,193.401 104.815,193.489 104.100 C 193.578 103.385,193.578 102.215,193.489 101.500 C 193.401 100.785,193.328 101.370,193.328 102.800 M206.528 102.800 C 206.528 104.230,206.601 104.815,206.689 104.100 C 206.778 103.385,206.778 102.215,206.689 101.500 C 206.601 100.785,206.528 101.370,206.528 102.800 M159.267 101.980 C 159.033 102.651,158.927 103.200,159.031 103.200 C 159.301 103.200,160.056 101.122,159.857 100.924 C 159.767 100.833,159.501 101.308,159.267 101.980 M192.229 107.829 C 192.081 108.415,192.038 108.972,192.132 109.066 C 192.227 109.160,192.424 108.758,192.571 108.171 C 192.719 107.585,192.762 107.028,192.668 106.934 C 192.573 106.840,192.376 107.242,192.229 107.829 M243.418 109.300 C 243.568 109.795,243.855 110.376,244.056 110.591 C 244.257 110.806,244.219 110.401,243.972 109.691 C 243.465 108.238,242.997 107.908,243.418 109.300 M191.240 111.440 C 191.010 112.273,190.894 113.027,190.982 113.115 C 191.070 113.203,191.330 112.593,191.560 111.760 C 191.790 110.927,191.906 110.173,191.818 110.085 C 191.730 109.997,191.470 110.607,191.240 111.440 M231.228 112.200 C 231.228 112.420,231.486 113.050,231.800 113.600 C 232.114 114.150,232.372 114.420,232.372 114.200 C 232.372 113.980,232.114 113.350,231.800 112.800 C 231.486 112.250,231.228 111.980,231.228 112.200 M209.256 114.400 C 209.256 114.730,209.411 115.360,209.600 115.800 C 209.817 116.304,209.944 116.378,209.944 116.000 C 209.944 115.670,209.789 115.040,209.600 114.600 C 209.383 114.096,209.256 114.022,209.256 114.400 M151.665 119.817 C 150.995 121.288,151.123 121.602,151.847 120.265 C 152.186 119.640,152.388 119.054,152.296 118.963 C 152.205 118.871,151.921 119.256,151.665 119.817 M211.606 122.633 C 211.609 123.055,211.795 123.670,212.018 124.000 C 212.315 124.438,212.352 124.276,212.156 123.400 C 211.827 121.929,211.598 121.610,211.606 122.633 M163.579 123.455 C 163.358 124.036,163.252 124.585,163.343 124.676 C 163.433 124.767,163.699 124.292,163.933 123.620 C 164.453 122.128,164.139 121.982,163.579 123.455 M184.846 133.667 C 184.821 134.034,184.696 134.664,184.570 135.067 C 184.352 135.762,184.363 135.763,184.797 135.087 C 185.048 134.696,185.173 134.066,185.073 133.687 C 184.911 133.068,184.888 133.066,184.846 133.667 M254.028 133.800 C 254.028 134.020,254.286 134.650,254.600 135.200 C 254.914 135.750,255.172 136.020,255.172 135.800 C 255.172 135.580,254.914 134.950,254.600 134.400 C 254.286 133.850,254.028 133.580,254.028 133.800 M202.648 136.600 C 202.791 137.260,203.066 138.070,203.259 138.400 C 203.484 138.784,203.518 138.568,203.352 137.800 C 203.209 137.140,202.934 136.330,202.741 136.000 C 202.516 135.616,202.482 135.832,202.648 136.600 M183.829 137.429 C 183.681 138.015,183.638 138.572,183.732 138.666 C 183.827 138.760,184.024 138.358,184.171 137.771 C 184.319 137.185,184.362 136.628,184.268 136.534 C 184.173 136.440,183.976 136.842,183.829 137.429 M196.846 136.867 C 196.821 137.234,196.696 137.864,196.570 138.267 C 196.352 138.962,196.363 138.963,196.797 138.287 C 197.048 137.896,197.173 137.266,197.073 136.887 C 196.911 136.268,196.888 136.266,196.846 136.867 M215.656 136.800 C 215.656 137.130,215.811 137.760,216.000 138.200 C 216.217 138.704,216.344 138.778,216.344 138.400 C 216.344 138.070,216.189 137.440,216.000 137.000 C 215.783 136.496,215.656 136.422,215.656 136.800 M242.467 138.420 C 242.701 139.092,242.967 139.567,243.057 139.476 C 243.256 139.278,242.501 137.200,242.231 137.200 C 242.127 137.200,242.233 137.749,242.467 138.420 M256.218 138.900 C 256.368 139.395,256.655 139.976,256.856 140.191 C 257.057 140.406,257.019 140.001,256.772 139.291 C 256.265 137.838,255.797 137.508,256.218 138.900 M155.265 142.617 C 154.595 144.088,154.723 144.402,155.447 143.065 C 155.786 142.440,155.988 141.854,155.896 141.763 C 155.805 141.671,155.521 142.056,155.265 142.617 M218.006 145.433 C 218.009 145.855,218.195 146.470,218.418 146.800 C 218.715 147.238,218.752 147.076,218.556 146.200 C 218.227 144.729,217.998 144.410,218.006 145.433 M180.649 148.615 C 180.512 148.973,180.415 149.566,180.434 149.933 C 180.453 150.300,180.627 150.069,180.821 149.420 C 181.198 148.158,181.065 147.533,180.649 148.615 M193.429 149.029 C 193.281 149.615,193.238 150.172,193.332 150.266 C 193.427 150.360,193.624 149.958,193.771 149.371 C 193.919 148.785,193.962 148.228,193.868 148.134 C 193.773 148.040,193.576 148.442,193.429 149.029 M207.044 152.200 C 207.373 153.671,207.602 153.990,207.594 152.967 C 207.591 152.545,207.405 151.930,207.182 151.600 C 206.885 151.162,206.848 151.324,207.044 152.200 M179.429 153.029 C 179.281 153.615,179.238 154.172,179.332 154.266 C 179.427 154.360,179.624 153.958,179.771 153.371 C 179.919 152.785,179.962 152.228,179.868 152.134 C 179.773 152.040,179.576 152.442,179.429 153.029 M191.429 156.229 C 191.281 156.815,191.238 157.372,191.332 157.466 C 191.427 157.560,191.624 157.158,191.771 156.571 C 191.919 155.985,191.962 155.428,191.868 155.334 C 191.773 155.240,191.576 155.642,191.429 156.229 M178.446 156.467 C 178.421 156.834,178.296 157.464,178.170 157.867 C 177.952 158.562,177.963 158.563,178.397 157.887 C 178.648 157.496,178.773 156.866,178.673 156.487 C 178.511 155.868,178.488 155.866,178.446 156.467 M195.200 162.111 C 195.200 162.187,195.785 162.678,196.500 163.201 C 197.304 163.790,197.584 163.887,197.233 163.455 C 196.700 162.799,195.200 161.807,195.200 162.111 M203.322 163.029 L 202.200 164.058 203.500 163.154 C 204.215 162.657,204.800 162.193,204.800 162.125 C 204.800 161.809,204.358 162.080,203.322 163.029 M229.600 162.088 C 229.600 162.166,230.455 162.933,231.500 163.792 C 232.545 164.651,233.040 164.940,232.600 164.434 C 231.822 163.539,229.600 161.802,229.600 162.088 M198.900 165.002 L 200.000 166.182 201.100 165.002 L 202.200 163.823 201.100 164.781 L 200.000 165.739 198.900 164.781 L 197.800 163.823 198.900 165.002 M255.267 167.620 C 255.501 168.292,255.767 168.767,255.857 168.676 C 256.056 168.478,255.301 166.400,255.031 166.400 C 254.927 166.400,255.033 166.949,255.267 167.620 M164.323 167.500 C 163.618 168.321,163.090 169.200,163.301 169.200 C 163.383 169.200,163.849 168.660,164.337 168.000 C 165.301 166.696,165.292 166.372,164.323 167.500 M130.467 168.380 C 130.233 169.051,130.127 169.600,130.231 169.600 C 130.501 169.600,131.256 167.522,131.057 167.324 C 130.967 167.233,130.701 167.708,130.467 168.380 M269.018 168.100 C 269.168 168.595,269.455 169.176,269.656 169.391 C 269.857 169.606,269.819 169.201,269.572 168.491 C 269.065 167.038,268.597 166.708,269.018 168.100 M181.700 171.087 C 182.305 171.178,183.295 171.178,183.900 171.087 C 184.505 170.995,184.010 170.920,182.800 170.920 C 181.590 170.920,181.095 170.995,181.700 171.087 M217.400 171.159 C 218.720 171.330,220.250 171.598,220.800 171.754 C 221.683 172.005,221.712 171.983,221.045 171.569 C 220.630 171.310,219.100 171.042,217.645 170.973 L 215.000 170.847 217.400 171.159 M256.828 171.000 C 256.828 171.220,257.086 171.850,257.400 172.400 C 257.714 172.950,257.972 173.220,257.972 173.000 C 257.972 172.780,257.714 172.150,257.400 171.600 C 257.086 171.050,256.828 170.780,256.828 171.000 M176.060 173.203 C 175.147 173.864,174.400 174.503,174.400 174.623 C 174.400 174.811,176.654 173.277,177.780 172.322 C 178.727 171.519,177.556 172.118,176.060 173.203 M188.411 172.661 C 188.955 173.025,189.861 173.700,190.424 174.161 C 190.987 174.623,190.738 174.325,189.872 173.500 C 189.006 172.675,188.100 172.000,187.860 172.000 C 187.619 172.000,187.867 172.298,188.411 172.661 M210.062 173.440 C 209.136 174.232,208.109 175.402,207.779 176.040 C 206.945 177.654,207.347 177.495,208.334 175.821 C 208.782 175.063,209.906 173.893,210.834 173.221 C 211.761 172.550,212.345 172.000,212.132 172.000 C 211.919 172.000,210.987 172.648,210.062 173.440 M225.200 174.505 C 225.200 174.647,225.650 175.428,226.200 176.238 C 226.750 177.049,227.200 177.541,227.200 177.334 C 227.200 177.126,226.750 176.345,226.200 175.600 C 225.650 174.855,225.200 174.362,225.200 174.505 M172.249 178.215 C 172.112 178.573,172.015 179.166,172.034 179.533 C 172.053 179.900,172.227 179.669,172.421 179.020 C 172.798 177.758,172.665 177.133,172.249 178.215 M193.044 178.600 C 193.373 180.071,193.602 180.390,193.594 179.367 C 193.591 178.945,193.405 178.330,193.182 178.000 C 192.885 177.562,192.848 177.724,193.044 178.600 M206.421 179.100 C 206.145 180.094,206.035 191.183,206.095 212.000 L 206.186 243.400 206.393 211.200 C 206.507 193.490,206.754 178.685,206.943 178.300 C 207.131 177.915,207.185 177.600,207.062 177.600 C 206.938 177.600,206.650 178.275,206.421 179.100 M126.044 179.244 C 125.798 179.951,125.666 180.600,125.752 180.685 C 125.838 180.771,126.109 180.262,126.356 179.556 C 126.602 178.849,126.734 178.200,126.648 178.115 C 126.562 178.029,126.291 178.538,126.044 179.244 M139.267 179.580 C 139.033 180.251,138.927 180.800,139.031 180.800 C 139.301 180.800,140.056 178.722,139.857 178.524 C 139.767 178.433,139.501 178.908,139.267 179.580 M260.229 179.200 C 260.376 179.750,260.664 180.470,260.867 180.800 C 261.125 181.217,261.157 181.095,260.971 180.400 C 260.824 179.850,260.536 179.130,260.333 178.800 C 260.075 178.383,260.043 178.505,260.229 179.200 M159.383 196.600 C 159.383 206.060,159.436 209.873,159.500 205.073 C 159.564 200.273,159.563 192.533,159.499 187.873 C 159.436 183.213,159.383 187.140,159.383 196.600 M193.693 211.200 C 193.637 228.250,193.506 242.920,193.402 243.800 L 193.212 245.400 193.609 243.858 C 193.858 242.887,193.966 230.823,193.900 211.258 L 193.795 180.200 193.693 211.200 M122.844 188.044 C 122.598 188.751,122.466 189.400,122.552 189.485 C 122.638 189.571,122.909 189.062,123.156 188.356 C 123.402 187.649,123.534 187.000,123.448 186.915 C 123.362 186.829,123.091 187.338,122.844 188.044 M136.044 188.044 C 135.798 188.751,135.666 189.400,135.752 189.485 C 135.838 189.571,136.109 189.062,136.356 188.356 C 136.602 187.649,136.734 187.000,136.648 186.915 C 136.562 186.829,136.291 187.338,136.044 188.044 M263.429 187.600 C 263.576 188.150,263.864 188.870,264.067 189.200 C 264.325 189.617,264.357 189.495,264.171 188.800 C 264.024 188.250,263.736 187.530,263.533 187.200 C 263.275 186.783,263.243 186.905,263.429 187.600 M240.579 201.200 C 240.579 208.350,240.633 211.275,240.699 207.700 C 240.766 204.125,240.766 198.275,240.699 194.700 C 240.633 191.125,240.579 194.050,240.579 201.200 M118.629 201.029 C 118.481 201.615,118.438 202.172,118.532 202.266 C 118.627 202.360,118.824 201.958,118.971 201.371 C 119.119 200.785,119.162 200.228,119.068 200.134 C 118.973 200.040,118.776 200.442,118.629 201.029 M228.165 207.400 C 228.166 211.360,228.226 212.926,228.298 210.880 C 228.371 208.834,228.371 205.594,228.298 203.680 C 228.224 201.766,228.165 203.440,228.165 207.400 M117.646 204.867 C 117.621 205.234,117.496 205.864,117.370 206.267 C 117.152 206.962,117.163 206.963,117.597 206.287 C 117.848 205.896,117.973 205.266,117.873 204.887 C 117.711 204.268,117.688 204.266,117.646 204.867 M282.006 205.033 C 282.009 205.455,282.195 206.070,282.418 206.400 C 282.715 206.838,282.752 206.676,282.556 205.800 C 282.227 204.329,281.998 204.010,282.006 205.033 M270.068 208.200 C 270.062 208.640,270.211 209.360,270.400 209.800 C 270.838 210.819,270.838 209.768,270.400 208.400 C 270.143 207.596,270.077 207.557,270.068 208.200 M116.656 209.284 C 116.521 209.788,116.428 210.650,116.449 211.200 C 116.472 211.789,116.631 211.471,116.836 210.425 C 117.203 208.552,117.073 207.727,116.656 209.284 M283.293 211.200 C 283.293 211.970,283.375 212.285,283.476 211.900 C 283.576 211.515,283.576 210.885,283.476 210.500 C 283.375 210.115,283.293 210.430,283.293 211.200 M128.656 212.484 C 128.521 212.988,128.436 214.570,128.467 216.000 C 128.524 218.600,128.524 218.600,128.798 215.200 C 129.088 211.604,129.056 210.993,128.656 212.484 M116.128 215.600 C 116.128 217.030,116.201 217.615,116.289 216.900 C 116.378 216.185,116.378 215.015,116.289 214.300 C 116.201 213.585,116.128 214.170,116.128 215.600 M271.272 215.400 C 271.226 216.720,271.096 218.250,270.983 218.800 L 270.777 219.800 271.206 218.819 C 271.441 218.280,271.571 216.750,271.494 215.419 L 271.354 213.000 271.272 215.400 M283.724 215.800 C 283.726 217.120,283.801 217.612,283.890 216.893 C 283.979 216.174,283.977 215.094,283.886 214.493 C 283.795 213.892,283.722 214.480,283.724 215.800 M160.336 216.204 C 160.753 217.064,161.821 218.092,162.800 218.574 C 163.130 218.736,162.970 218.519,162.444 218.091 C 161.918 217.662,161.141 216.882,160.717 216.356 C 160.132 215.630,160.040 215.594,160.336 216.204 M238.205 217.365 C 237.328 218.225,236.968 218.737,237.405 218.501 C 238.294 218.023,240.230 216.059,239.968 215.902 C 239.876 215.846,239.082 216.504,238.205 217.365 M283.301 220.200 C 283.305 221.080,283.387 221.393,283.483 220.895 C 283.579 220.398,283.575 219.678,283.475 219.295 C 283.375 218.913,283.296 219.320,283.301 220.200 M116.440 220.433 C 116.462 221.185,116.630 222.250,116.813 222.800 C 117.029 223.446,117.066 223.020,116.919 221.600 C 116.659 219.083,116.381 218.407,116.440 220.433 M270.256 222.484 C 270.121 222.988,270.027 223.760,270.046 224.200 C 270.065 224.640,270.245 224.298,270.446 223.440 C 270.836 221.778,270.670 220.940,270.256 222.484 M282.200 226.000 C 282.048 226.691,282.007 227.341,282.109 227.442 C 282.211 227.544,282.409 227.053,282.550 226.350 C 282.691 225.647,282.731 224.998,282.641 224.908 C 282.550 224.817,282.352 225.309,282.200 226.000 M117.458 226.400 C 117.775 228.125,118.002 228.451,117.994 227.167 C 117.991 226.635,117.811 225.930,117.594 225.600 C 117.318 225.178,117.277 225.415,117.458 226.400 M130.406 227.433 C 130.409 227.855,130.595 228.470,130.818 228.800 C 131.115 229.238,131.152 229.076,130.956 228.200 C 130.627 226.729,130.398 226.410,130.406 227.433 M269.029 227.829 C 268.881 228.415,268.838 228.972,268.932 229.066 C 269.027 229.160,269.224 228.758,269.371 228.171 C 269.519 227.585,269.562 227.028,269.468 226.934 C 269.373 226.840,269.176 227.242,269.029 227.829 M131.606 231.833 C 131.609 232.255,131.795 232.870,132.018 233.200 C 132.315 233.638,132.352 233.476,132.156 232.600 C 131.827 231.129,131.598 230.810,131.606 231.833 M268.046 231.667 C 268.021 232.034,267.896 232.664,267.770 233.067 C 267.552 233.762,267.563 233.763,267.997 233.087 C 268.248 232.696,268.373 232.066,268.273 231.687 C 268.111 231.068,268.088 231.066,268.046 231.667 M119.606 235.033 C 119.609 235.455,119.795 236.070,120.018 236.400 C 120.315 236.838,120.352 236.676,120.156 235.800 C 119.827 234.329,119.598 234.010,119.606 235.033 M132.456 234.800 C 132.456 235.130,132.611 235.760,132.800 236.200 C 133.017 236.704,133.144 236.778,133.144 236.400 C 133.144 236.070,132.989 235.440,132.800 235.000 C 132.583 234.496,132.456 234.422,132.456 234.800 M280.046 234.867 C 280.021 235.234,279.896 235.864,279.770 236.267 C 279.552 236.962,279.563 236.963,279.997 236.287 C 280.248 235.896,280.373 235.266,280.273 234.887 C 280.111 234.268,280.088 234.266,280.046 234.867 M263.783 245.670 C 263.623 246.181,263.291 246.732,263.046 246.894 C 262.735 247.099,262.754 247.190,263.110 247.194 C 263.614 247.200,264.586 245.252,264.248 244.914 C 264.152 244.818,263.942 245.158,263.783 245.670 M116.444 249.644 C 116.198 250.351,116.066 251.000,116.152 251.085 C 116.238 251.171,116.509 250.662,116.756 249.956 C 117.002 249.249,117.134 248.600,117.048 248.515 C 116.962 248.429,116.691 248.938,116.444 249.644 M283.029 249.200 C 283.176 249.750,283.464 250.470,283.667 250.800 C 283.925 251.217,283.957 251.095,283.771 250.400 C 283.624 249.850,283.336 249.130,283.133 248.800 C 282.875 248.383,282.843 248.505,283.029 249.200 M148.800 251.831 C 148.800 252.101,150.878 252.856,151.076 252.657 C 151.167 252.567,150.692 252.301,150.020 252.067 C 149.349 251.833,148.800 251.727,148.800 251.831 M154.000 253.831 C 154.000 254.101,156.078 254.856,156.276 254.657 C 156.367 254.567,155.892 254.301,155.220 254.067 C 154.549 253.833,154.000 253.727,154.000 253.831 M186.200 255.050 C 185.481 255.662,185.334 255.905,185.833 255.657 C 186.566 255.293,187.941 253.976,187.549 254.014 C 187.467 254.022,186.860 254.488,186.200 255.050 M212.767 254.545 C 213.300 255.201,214.800 256.193,214.800 255.889 C 214.800 255.813,214.215 255.322,213.500 254.799 C 212.696 254.210,212.416 254.113,212.767 254.545 M157.200 255.133 C 157.530 255.336,158.250 255.624,158.800 255.771 C 159.495 255.957,159.617 255.925,159.200 255.667 C 158.870 255.464,158.150 255.176,157.600 255.029 C 156.905 254.843,156.783 254.875,157.200 255.133 M241.400 255.414 C 240.395 255.898,240.363 255.953,241.200 255.751 C 241.750 255.619,242.371 255.350,242.580 255.155 C 243.098 254.671,242.814 254.733,241.400 255.414 M181.800 257.414 C 180.795 257.898,180.763 257.953,181.600 257.751 C 182.150 257.619,182.771 257.350,182.980 257.155 C 183.498 256.671,183.214 256.733,181.800 257.414 M216.800 257.031 C 216.800 257.301,218.878 258.056,219.076 257.857 C 219.167 257.767,218.692 257.501,218.020 257.267 C 217.349 257.033,216.800 256.927,216.800 257.031 M165.400 257.600 C 167.092 258.031,168.544 258.031,167.200 257.600 C 166.650 257.424,165.750 257.283,165.200 257.287 C 164.302 257.294,164.322 257.326,165.400 257.600 M232.800 257.600 C 231.456 258.031,232.908 258.031,234.600 257.600 C 235.678 257.326,235.698 257.294,234.800 257.287 C 234.250 257.283,233.350 257.424,232.800 257.600 M175.400 258.400 L 172.200 258.653 175.200 258.699 C 176.850 258.723,178.560 258.589,179.000 258.400 C 179.441 258.210,179.531 258.077,179.200 258.101 C 178.870 258.126,177.160 258.261,175.400 258.400 M224.800 258.400 L 221.800 258.656 224.400 258.705 C 225.830 258.732,227.720 258.605,228.600 258.423 C 230.554 258.019,229.354 258.012,224.800 258.400 M198.575 260.500 L 197.400 261.800 198.700 260.625 L 200.000 259.450 201.300 260.625 L 202.600 261.800 201.425 260.500 C 200.779 259.785,200.138 259.200,200.000 259.200 C 199.862 259.200,199.221 259.785,198.575 260.500 M195.578 263.500 L 194.200 265.000 195.796 263.600 C 196.673 262.830,197.468 262.155,197.562 262.100 C 197.656 262.045,197.559 262.000,197.345 262.000 C 197.132 262.000,196.337 262.675,195.578 263.500 M111.267 263.580 C 111.033 264.251,110.927 264.800,111.031 264.800 C 111.301 264.800,112.056 262.722,111.857 262.524 C 111.767 262.433,111.501 262.908,111.267 263.580 M203.200 262.525 C 203.200 262.594,203.785 263.179,204.500 263.825 L 205.800 265.000 204.625 263.700 C 203.530 262.488,203.200 262.216,203.200 262.525 M288.218 263.300 C 288.368 263.795,288.655 264.376,288.856 264.591 C 289.057 264.806,289.019 264.401,288.772 263.691 C 288.265 262.238,287.797 261.908,288.218 263.300 M206.000 264.946 C 206.000 265.056,206.540 265.530,207.200 266.000 C 207.860 266.470,208.400 266.764,208.400 266.654 C 208.400 266.544,207.860 266.070,207.200 265.600 C 206.540 265.130,206.000 264.836,206.000 264.946 M191.111 266.560 C 188.971 267.832,188.711 268.244,190.673 267.255 C 191.593 266.791,192.459 266.229,192.596 266.006 C 192.914 265.493,192.898 265.499,191.111 266.560 M289.418 266.500 C 289.568 266.995,289.855 267.576,290.056 267.791 C 290.257 268.006,290.219 267.601,289.972 266.891 C 289.465 265.438,288.997 265.108,289.418 266.500 M187.627 268.568 C 187.348 268.904,187.216 270.004,187.304 271.268 L 187.452 273.400 187.526 271.120 C 187.581 269.424,187.779 268.735,188.300 268.432 C 188.685 268.208,188.797 268.019,188.549 268.012 C 188.301 268.005,187.886 268.255,187.627 268.568 M211.700 268.432 C 212.223 268.737,212.402 269.365,212.406 270.920 C 212.409 272.064,212.556 273.227,212.732 273.504 C 212.908 273.780,212.974 272.880,212.878 271.504 C 212.705 268.995,212.294 267.989,211.451 268.012 C 211.203 268.019,211.315 268.208,211.700 268.432 M106.844 275.244 C 106.598 275.951,106.466 276.600,106.552 276.685 C 106.638 276.771,106.909 276.262,107.156 275.556 C 107.402 274.849,107.534 274.200,107.448 274.115 C 107.362 274.029,107.091 274.538,106.844 275.244 M185.979 275.855 C 185.758 276.436,185.652 276.985,185.743 277.076 C 185.833 277.167,186.099 276.692,186.333 276.020 C 186.853 274.528,186.539 274.382,185.979 275.855 M213.667 276.020 C 213.901 276.692,214.167 277.167,214.257 277.076 C 214.456 276.878,213.701 274.800,213.431 274.800 C 213.327 274.800,213.433 275.349,213.667 276.020 M184.067 280.780 C 183.833 281.451,183.727 282.000,183.831 282.000 C 184.101 282.000,184.856 279.922,184.657 279.724 C 184.567 279.633,184.301 280.108,184.067 280.780 M218.629 288.400 C 218.776 288.950,219.064 289.670,219.267 290.000 C 219.525 290.417,219.557 290.295,219.371 289.600 C 219.224 289.050,218.936 288.330,218.733 288.000 C 218.475 287.583,218.443 287.705,218.629 288.400 M101.667 289.180 C 101.433 289.851,101.327 290.400,101.431 290.400 C 101.701 290.400,102.456 288.322,102.257 288.124 C 102.167 288.033,101.901 288.508,101.667 289.180 M297.818 288.900 C 297.968 289.395,298.255 289.976,298.456 290.191 C 298.657 290.406,298.619 290.001,298.372 289.291 C 297.865 287.838,297.397 287.508,297.818 288.900 M100.444 292.444 C 100.198 293.151,100.066 293.800,100.152 293.885 C 100.238 293.971,100.509 293.462,100.756 292.756 C 101.002 292.049,101.134 291.400,101.048 291.315 C 100.962 291.229,100.691 291.738,100.444 292.444 M299.029 292.000 C 299.176 292.550,299.464 293.270,299.667 293.600 C 299.925 294.017,299.957 293.895,299.771 293.200 C 299.624 292.650,299.336 291.930,299.133 291.600 C 298.875 291.183,298.843 291.305,299.029 292.000 M177.644 296.844 C 177.398 297.551,177.266 298.200,177.352 298.285 C 177.438 298.371,177.709 297.862,177.956 297.156 C 178.202 296.449,178.334 295.800,178.248 295.715 C 178.162 295.629,177.891 296.138,177.644 296.844 M222.067 297.220 C 222.301 297.892,222.567 298.367,222.657 298.276 C 222.856 298.078,222.101 296.000,221.831 296.000 C 221.727 296.000,221.833 296.549,222.067 297.220 M174.379 305.055 C 174.158 305.636,174.052 306.185,174.143 306.276 C 174.233 306.367,174.499 305.892,174.733 305.220 C 175.253 303.728,174.939 303.582,174.379 305.055 M225.267 305.220 C 225.501 305.892,225.767 306.367,225.857 306.276 C 226.056 306.078,225.301 304.000,225.031 304.000 C 224.927 304.000,225.033 304.549,225.267 305.220 M228.229 312.400 C 228.376 312.950,228.664 313.670,228.867 314.000 C 229.125 314.417,229.157 314.295,228.971 313.600 C 228.824 313.050,228.536 312.330,228.333 312.000 C 228.075 311.583,228.043 311.705,228.229 312.400 M306.461 313.584 C 306.470 314.724,306.571 315.562,306.686 315.447 C 306.951 315.183,306.917 311.984,306.647 311.714 C 306.536 311.603,306.452 312.444,306.461 313.584 M93.125 312.900 C 93.032 313.395,93.076 314.250,93.221 314.800 C 93.415 315.532,93.492 315.290,93.510 313.900 C 93.535 311.845,93.392 311.472,93.125 312.900 M150.400 319.600 L 134.200 319.814 150.276 319.907 C 160.664 319.967,166.440 319.858,166.600 319.600 C 166.736 319.380,166.792 319.242,166.724 319.293 C 166.656 319.344,159.310 319.482,150.400 319.600 M233.515 319.672 C 234.447 320.042,302.081 320.063,302.662 319.694 C 302.916 319.532,287.307 319.400,267.977 319.400 C 248.646 319.400,233.138 319.522,233.515 319.672 " stroke="none" fill="#9ce8ac" fill-rule="evenodd"></path><path id="path3" d="M233.583 165.300 C 234.564 166.345,235.419 167.200,235.483 167.200 C 235.784 167.200,235.466 166.841,233.700 165.183 L 231.800 163.400 233.583 165.300 M240.546 182.600 C 240.547 184.800,240.614 185.649,240.695 184.487 C 240.776 183.324,240.776 181.524,240.693 180.487 C 240.611 179.449,240.545 180.400,240.546 182.600 M172.114 181.800 C 172.117 182.900,172.195 183.303,172.287 182.695 C 172.379 182.086,172.377 181.186,172.282 180.695 C 172.187 180.203,172.111 180.700,172.114 181.800 M227.693 181.200 C 227.693 181.970,227.775 182.285,227.876 181.900 C 227.976 181.515,227.976 180.885,227.876 180.500 C 227.775 180.115,227.693 180.430,227.693 181.200 M164.900 219.476 C 165.285 219.576,165.915 219.576,166.300 219.476 C 166.685 219.375,166.370 219.293,165.600 219.293 C 164.830 219.293,164.515 219.375,164.900 219.476 M233.505 219.483 C 234.002 219.579,234.722 219.575,235.105 219.475 C 235.487 219.375,235.080 219.296,234.200 219.301 C 233.320 219.305,233.007 219.387,233.505 219.483 M206.514 241.800 C 206.517 242.900,206.595 243.303,206.687 242.695 C 206.779 242.086,206.777 241.186,206.682 240.695 C 206.587 240.203,206.511 240.700,206.514 241.800 M173.500 258.293 C 174.435 258.377,175.965 258.377,176.900 258.293 C 177.835 258.209,177.070 258.140,175.200 258.140 C 173.330 258.140,172.565 258.209,173.500 258.293 M225.505 258.283 C 226.002 258.379,226.722 258.375,227.105 258.275 C 227.487 258.175,227.080 258.096,226.200 258.101 C 225.320 258.105,225.007 258.187,225.505 258.283 " stroke="none" fill="#aeecba" fill-rule="evenodd"></path><path id="path4" d="M182.707 79.890 C 183.426 79.979,184.506 79.977,185.107 79.886 C 185.708 79.795,185.120 79.722,183.800 79.724 C 182.480 79.726,181.988 79.801,182.707 79.890 M215.107 79.890 C 215.826 79.979,216.906 79.977,217.507 79.886 C 218.108 79.795,217.520 79.722,216.200 79.724 C 214.880 79.726,214.388 79.801,215.107 79.890 M167.385 86.500 L 165.400 88.600 167.500 86.615 C 168.655 85.523,169.600 84.578,169.600 84.515 C 169.600 84.217,169.229 84.549,167.385 86.500 M198.700 85.601 L 200.000 86.985 201.300 85.601 L 202.600 84.218 201.300 85.384 L 200.000 86.550 198.700 85.384 L 197.400 84.218 198.700 85.601 M232.200 86.400 C 233.283 87.500,234.260 88.400,234.370 88.400 C 234.480 88.400,233.683 87.500,232.600 86.400 C 231.517 85.300,230.540 84.400,230.430 84.400 C 230.320 84.400,231.117 85.300,232.200 86.400 M181.338 93.106 C 181.084 93.268,182.102 93.400,183.600 93.400 C 185.098 93.400,186.116 93.268,185.862 93.106 C 185.608 92.944,184.590 92.812,183.600 92.812 C 182.610 92.812,181.592 92.944,181.338 93.106 M214.140 93.106 C 213.887 93.268,215.006 93.400,216.626 93.400 C 218.245 93.400,219.262 93.278,218.885 93.128 C 217.953 92.758,214.708 92.743,214.140 93.106 M189.999 95.801 C 190.768 96.680,191.555 97.580,191.748 97.800 C 191.940 98.020,191.911 97.840,191.683 97.400 C 191.455 96.960,190.668 96.060,189.934 95.401 L 188.600 94.202 189.999 95.801 M209.241 96.214 C 208.559 96.992,208.000 97.748,208.000 97.894 C 208.000 98.040,208.136 97.989,208.303 97.780 C 208.470 97.571,209.133 96.815,209.778 96.100 C 210.422 95.385,210.845 94.800,210.716 94.800 C 210.588 94.800,209.924 95.436,209.241 96.214 M192.468 99.600 C 192.488 100.639,193.118 102.346,193.132 101.400 C 193.138 100.960,192.989 100.240,192.800 99.800 C 192.589 99.310,192.461 99.232,192.468 99.600 M241.267 103.220 C 241.501 103.892,241.767 104.367,241.857 104.276 C 242.056 104.078,241.301 102.000,241.031 102.000 C 240.927 102.000,241.033 102.549,241.267 103.220 M187.479 123.100 C 187.169 123.653,186.732 125.802,186.980 125.554 C 187.277 125.256,188.005 122.800,187.796 122.800 C 187.714 122.800,187.571 122.935,187.479 123.100 M199.507 129.114 C 199.381 129.593,199.544 129.829,200.000 129.829 C 200.456 129.829,200.619 129.593,200.493 129.114 C 200.391 128.721,200.169 128.400,200.000 128.400 C 199.831 128.400,199.609 128.721,199.507 129.114 M196.440 139.840 C 196.210 140.673,196.094 141.427,196.182 141.515 C 196.270 141.603,196.530 140.993,196.760 140.160 C 196.990 139.327,197.106 138.573,197.018 138.485 C 196.930 138.397,196.670 139.007,196.440 139.840 M195.429 143.429 C 195.281 144.015,195.238 144.572,195.332 144.666 C 195.427 144.760,195.624 144.358,195.771 143.771 C 195.919 143.185,195.962 142.628,195.868 142.534 C 195.773 142.440,195.576 142.842,195.429 143.429 M218.644 146.200 C 218.973 147.671,219.202 147.990,219.194 146.967 C 219.191 146.545,219.005 145.930,218.782 145.600 C 218.485 145.162,218.448 145.324,218.644 146.200 M151.665 151.817 C 150.995 153.288,151.123 153.602,151.847 152.265 C 152.186 151.640,152.388 151.054,152.296 150.963 C 152.205 150.871,151.921 151.256,151.665 151.817 M177.600 157.800 C 177.391 158.350,177.005 158.800,176.743 158.800 C 176.481 158.800,176.382 158.916,176.524 159.057 C 176.891 159.424,177.876 158.516,178.119 157.587 C 178.413 156.464,178.051 156.613,177.600 157.800 M166.000 165.000 C 165.028 165.990,164.323 166.800,164.433 166.800 C 164.543 166.800,165.428 165.990,166.400 165.000 C 167.372 164.010,168.077 163.200,167.967 163.200 C 167.857 163.200,166.972 164.010,166.000 165.000 M198.700 164.401 L 200.000 165.785 201.300 164.401 L 202.600 163.018 201.300 164.184 L 200.000 165.350 198.700 164.184 L 197.400 163.018 198.700 164.401 M233.800 165.200 C 234.659 166.080,235.452 166.800,235.562 166.800 C 235.672 166.800,235.059 166.080,234.200 165.200 C 233.341 164.320,232.548 163.600,232.438 163.600 C 232.328 163.600,232.941 164.320,233.800 165.200 M181.900 171.482 C 182.395 171.578,183.205 171.578,183.700 171.482 C 184.195 171.387,183.790 171.309,182.800 171.309 C 181.810 171.309,181.405 171.387,181.900 171.482 M216.300 171.482 C 216.795 171.578,217.605 171.578,218.100 171.482 C 218.595 171.387,218.190 171.309,217.200 171.309 C 216.210 171.309,215.805 171.387,216.300 171.482 M222.200 172.657 C 224.237 174.464,224.987 174.991,224.202 174.063 C 223.766 173.548,223.047 172.941,222.604 172.714 C 222.162 172.487,221.980 172.462,222.200 172.657 M240.068 176.400 C 240.088 177.439,240.718 179.146,240.732 178.200 C 240.738 177.760,240.589 177.040,240.400 176.600 C 240.189 176.110,240.061 176.032,240.068 176.400 M273.267 177.620 C 273.501 178.292,273.767 178.767,273.857 178.676 C 274.056 178.478,273.301 176.400,273.031 176.400 C 272.927 176.400,273.033 176.949,273.267 177.620 M138.867 181.580 C 138.633 182.251,138.527 182.800,138.631 182.800 C 138.901 182.800,139.656 180.722,139.457 180.524 C 139.367 180.433,139.101 180.908,138.867 181.580 M206.590 210.200 C 206.590 226.700,206.639 233.508,206.700 225.330 C 206.760 217.151,206.760 203.651,206.700 195.330 C 206.639 187.008,206.590 193.700,206.590 210.200 M193.390 211.800 C 193.390 228.740,193.440 235.612,193.500 227.070 C 193.560 218.529,193.560 204.669,193.500 196.270 C 193.440 187.872,193.390 194.860,193.390 211.800 M227.688 198.476 C 227.640 207.428,227.735 214.836,227.900 214.939 C 228.173 215.108,228.167 202.759,227.887 188.000 C 227.826 184.810,227.737 189.524,227.688 198.476 M172.000 199.280 C 171.890 208.014,171.937 215.023,172.105 214.856 C 172.272 214.688,172.362 207.542,172.305 198.975 L 172.200 183.400 172.000 199.280 M281.656 202.000 C 281.656 202.330,281.811 202.960,282.000 203.400 C 282.217 203.904,282.344 203.978,282.344 203.600 C 282.344 203.270,282.189 202.640,282.000 202.200 C 281.783 201.696,281.656 201.622,281.656 202.000 M115.852 211.700 C 115.529 212.904,115.586 218.823,115.928 219.685 C 116.078 220.062,116.200 218.217,116.200 215.585 C 116.200 210.367,116.202 210.393,115.852 211.700 M129.293 212.000 C 129.293 212.770,129.375 213.085,129.476 212.700 C 129.576 212.315,129.576 211.685,129.476 211.300 C 129.375 210.915,129.293 211.230,129.293 212.000 M270.687 214.200 C 270.808 215.960,270.974 217.475,271.054 217.567 C 271.333 217.885,271.152 214.190,270.810 212.600 C 270.563 211.451,270.529 211.902,270.687 214.200 M283.800 215.843 C 283.800 218.377,283.917 220.035,284.060 219.526 C 284.407 218.293,284.415 212.779,284.072 211.917 C 283.922 211.542,283.800 213.309,283.800 215.843 M128.924 215.800 C 128.926 217.120,129.001 217.612,129.090 216.893 C 129.179 216.174,129.177 215.094,129.086 214.493 C 128.995 213.892,128.922 214.480,128.924 215.800 M170.399 217.300 C 169.810 218.104,169.713 218.384,170.145 218.033 C 170.801 217.500,171.793 216.000,171.489 216.000 C 171.413 216.000,170.922 216.585,170.399 217.300 M270.501 219.400 C 270.505 220.280,270.587 220.593,270.683 220.095 C 270.779 219.598,270.775 218.878,270.675 218.495 C 270.575 218.113,270.496 218.520,270.501 219.400 M129.293 219.600 C 129.293 220.370,129.375 220.685,129.476 220.300 C 129.576 219.915,129.576 219.285,129.476 218.900 C 129.375 218.515,129.293 218.830,129.293 219.600 M116.806 225.233 C 116.809 225.765,116.989 226.470,117.206 226.800 C 117.482 227.222,117.523 226.985,117.342 226.000 C 117.025 224.275,116.798 223.949,116.806 225.233 M117.656 228.800 C 117.656 229.130,117.811 229.760,118.000 230.200 C 118.217 230.704,118.344 230.778,118.344 230.400 C 118.344 230.070,118.189 229.440,118.000 229.000 C 117.783 228.496,117.656 228.422,117.656 228.800 M268.229 229.429 C 268.081 230.015,268.038 230.572,268.132 230.666 C 268.227 230.760,268.424 230.358,268.571 229.771 C 268.719 229.185,268.762 228.628,268.668 228.534 C 268.573 228.440,268.376 228.842,268.229 229.429 M281.829 229.429 C 281.681 230.015,281.638 230.572,281.732 230.666 C 281.827 230.760,282.024 230.358,282.171 229.771 C 282.319 229.185,282.362 228.628,282.268 228.534 C 282.173 228.440,281.976 228.842,281.829 229.429 M267.449 232.215 C 267.312 232.573,267.215 233.166,267.234 233.533 C 267.253 233.900,267.427 233.669,267.621 233.020 C 267.998 231.758,267.865 231.133,267.449 232.215 M278.660 241.293 C 278.531 241.784,278.555 242.315,278.713 242.472 C 278.871 242.629,279.038 242.227,279.084 241.579 C 279.183 240.180,278.986 240.047,278.660 241.293 M120.989 241.384 C 121.161 241.922,120.951 242.400,120.320 242.910 C 119.432 243.628,119.431 243.639,120.278 243.225 C 121.482 242.636,121.723 242.130,121.191 241.303 C 120.780 240.662,120.762 240.670,120.989 241.384 M280.800 244.267 C 281.570 245.144,282.263 245.815,282.339 245.758 C 282.585 245.575,281.027 243.693,280.200 243.175 C 279.760 242.899,280.030 243.391,280.800 244.267 M147.600 250.934 C 147.600 251.037,148.181 251.324,148.891 251.572 C 149.601 251.819,150.006 251.857,149.791 251.656 C 149.335 251.229,147.600 250.658,147.600 250.934 M250.900 251.212 C 249.561 251.751,249.811 252.024,251.200 251.540 C 251.860 251.310,252.400 251.049,252.400 250.961 C 252.400 250.724,251.913 250.805,250.900 251.212 M188.000 253.000 C 187.028 253.990,186.323 254.800,186.433 254.800 C 186.543 254.800,187.428 253.990,188.400 253.000 C 189.372 252.010,190.077 251.200,189.967 251.200 C 189.857 251.200,188.972 252.010,188.000 253.000 M211.583 252.900 C 212.564 253.945,213.419 254.800,213.483 254.800 C 213.784 254.800,213.466 254.441,211.700 252.783 L 209.800 251.000 211.583 252.900 M113.579 256.255 C 113.358 256.836,113.252 257.385,113.343 257.476 C 113.433 257.567,113.699 257.092,113.933 256.420 C 114.453 254.928,114.139 254.782,113.579 256.255 M286.067 256.420 C 286.301 257.092,286.567 257.567,286.657 257.476 C 286.856 257.278,286.101 255.200,285.831 255.200 C 285.727 255.200,285.833 255.749,286.067 256.420 M169.891 257.889 C 170.601 257.977,171.861 257.979,172.691 257.892 C 173.521 257.805,172.940 257.733,171.400 257.731 C 169.860 257.729,169.181 257.800,169.891 257.889 M220.500 257.876 C 220.885 257.976,221.515 257.976,221.900 257.876 C 222.285 257.775,221.970 257.693,221.200 257.693 C 220.430 257.693,220.115 257.775,220.500 257.876 M227.907 257.890 C 228.626 257.979,229.706 257.977,230.307 257.886 C 230.908 257.795,230.320 257.722,229.000 257.724 C 227.680 257.726,227.188 257.801,227.907 257.890 M196.200 263.476 C 195.100 264.487,194.740 264.947,195.400 264.497 C 196.524 263.730,198.744 261.578,198.370 261.618 C 198.276 261.628,197.300 262.464,196.200 263.476 M202.800 263.000 C 203.546 263.770,204.247 264.400,204.357 264.400 C 204.467 264.400,203.946 263.770,203.200 263.000 C 202.454 262.230,201.753 261.600,201.643 261.600 C 201.533 261.600,202.054 262.230,202.800 263.000 M212.109 271.200 C 212.109 272.190,212.187 272.595,212.282 272.100 C 212.378 271.605,212.378 270.795,212.282 270.300 C 212.187 269.805,212.109 270.210,212.109 271.200 M187.701 271.400 C 187.705 272.280,187.787 272.593,187.883 272.095 C 187.979 271.598,187.975 270.878,187.875 270.495 C 187.775 270.113,187.696 270.520,187.701 271.400 M186.867 274.780 C 186.633 275.451,186.527 276.000,186.631 276.000 C 186.901 276.000,187.656 273.922,187.457 273.724 C 187.367 273.633,187.101 274.108,186.867 274.780 M103.979 281.855 C 103.758 282.436,103.652 282.985,103.743 283.076 C 103.833 283.167,104.099 282.692,104.333 282.020 C 104.853 280.528,104.539 280.382,103.979 281.855 M295.667 282.020 C 295.901 282.692,296.167 283.167,296.257 283.076 C 296.456 282.878,295.701 280.800,295.431 280.800 C 295.327 280.800,295.433 281.349,295.667 282.020 M183.667 282.780 C 183.433 283.451,183.327 284.000,183.431 284.000 C 183.701 284.000,184.456 281.922,184.257 281.724 C 184.167 281.633,183.901 282.108,183.667 282.780 M215.818 282.500 C 215.968 282.995,216.255 283.576,216.456 283.791 C 216.657 284.006,216.619 283.601,216.372 282.891 C 215.865 281.438,215.397 281.108,215.818 282.500 M97.579 299.055 C 97.358 299.636,97.252 300.185,97.343 300.276 C 97.433 300.367,97.699 299.892,97.933 299.220 C 98.453 297.728,98.139 297.582,97.579 299.055 M302.067 299.220 C 302.301 299.892,302.567 300.367,302.657 300.276 C 302.856 300.078,302.101 298.000,301.831 298.000 C 301.727 298.000,301.833 298.549,302.067 299.220 M169.362 317.657 C 168.943 318.129,168.060 318.848,167.400 319.256 C 166.740 319.663,166.352 319.998,166.538 319.999 C 167.187 320.001,169.005 318.725,169.719 317.766 C 170.609 316.569,170.389 316.502,169.362 317.657 M114.900 320.300 C 124.305 320.360,139.695 320.360,149.100 320.300 C 158.505 320.240,150.810 320.191,132.000 320.191 C 113.190 320.191,105.495 320.240,114.900 320.300 M250.900 320.300 C 260.305 320.360,275.695 320.360,285.100 320.300 C 294.505 320.240,286.810 320.191,268.000 320.191 C 249.190 320.191,241.495 320.240,250.900 320.300 " stroke="none" fill="#bcecc4" fill-rule="evenodd"></path></g></svg>