<svg id="svg" version="1.1" xmlns="http://www.w3.org/2000/svg" xmlns:xlink="http://www.w3.org/1999/xlink" width="400" height="400" viewBox="0, 0, 400,400"><g id="svgg"><path id="path0" d="M167.200 105.800 L 167.200 131.600 189.900 131.612 C 214.151 131.624,212.648 131.527,219.000 133.486 C 226.891 135.920,233.832 143.965,237.215 154.600 C 237.986 157.022,237.874 165.650,237.034 168.600 C 234.020 179.184,227.411 186.186,216.942 189.889 L 213.800 191.000 190.500 191.123 L 167.200 191.247 167.200 216.823 L 167.200 242.400 188.951 242.400 C 210.880 242.400,213.886 242.567,217.400 243.982 C 217.840 244.159,219.010 244.629,220.000 245.026 C 226.579 247.664,233.206 254.617,235.721 261.519 C 236.258 262.993,236.934 264.830,237.224 265.600 C 237.630 266.681,237.801 273.013,237.975 293.400 L 238.200 319.800 263.716 319.903 L 289.231 320.006 289.083 292.703 C 288.942 266.575,288.747 261.762,287.636 257.000 C 285.935 249.709,285.690 248.870,283.668 243.400 C 280.681 235.320,273.403 223.403,268.400 218.400 C 267.038 217.038,267.070 216.860,269.093 214.506 C 285.436 195.490,292.884 167.884,287.628 145.800 C 285.858 138.358,285.031 135.539,283.524 131.800 C 282.332 128.844,279.405 122.886,278.021 120.600 C 277.355 119.500,276.686 118.330,276.534 118.000 C 273.161 110.686,258.873 97.028,248.200 90.917 C 246.445 89.912,239.226 86.400,238.915 86.400 C 238.808 86.400,238.154 86.148,237.460 85.840 C 235.378 84.914,230.369 83.294,227.600 82.651 C 217.972 80.415,211.851 80.011,187.500 80.005 L 167.200 80.000 167.200 105.800 " stroke="none" fill="#3c2c64" fill-rule="evenodd"></path><path id="path1" d="M111.067 80.267 C 110.920 80.413,110.800 92.115,110.800 106.269 L 110.800 132.005 138.900 131.903 L 167.000 131.800 167.103 105.900 L 167.206 80.000 139.270 80.000 C 123.905 80.000,111.213 80.120,111.067 80.267 M110.897 216.897 L 111.000 243.000 138.556 243.103 C 158.665 243.178,166.259 243.083,166.659 242.751 C 167.113 242.374,167.188 237.954,167.103 216.649 L 167.000 191.000 138.897 190.897 L 110.794 190.795 110.897 216.897 " stroke="none" fill="#ab5c84" fill-rule="evenodd"></path><path id="path2" d="M0.000 200.000 L 0.000 400.000 200.000 400.000 L 400.000 400.000 400.000 200.000 L 400.000 0.000 200.000 0.000 L 0.000 0.000 0.000 200.000 M219.600 80.326 C 225.536 81.320,227.954 81.817,228.235 82.100 C 228.399 82.265,228.866 82.400,229.274 82.400 C 230.200 82.400,237.265 84.762,237.780 85.244 C 237.989 85.440,238.450 85.600,238.805 85.600 C 239.730 85.600,248.892 90.339,252.200 92.529 C 256.287 95.234,256.355 95.282,258.152 96.705 C 263.461 100.911,270.465 107.985,273.096 111.800 C 273.703 112.680,274.513 113.747,274.895 114.171 C 275.278 114.594,275.695 115.269,275.822 115.671 C 275.950 116.072,276.201 116.400,276.380 116.400 C 276.560 116.400,276.816 116.715,276.950 117.100 C 277.083 117.485,277.740 118.700,278.410 119.800 C 279.079 120.900,279.842 122.250,280.105 122.800 C 280.368 123.350,280.678 123.890,280.792 124.000 C 281.057 124.253,281.724 125.649,282.800 128.200 C 284.283 131.715,284.487 132.188,284.796 132.813 C 284.962 133.150,285.234 134.044,285.400 134.800 C 285.566 135.556,285.847 136.450,286.024 136.787 C 286.201 137.124,286.550 138.210,286.801 139.200 C 287.051 140.190,287.439 141.720,287.663 142.600 C 287.887 143.480,288.250 145.640,288.470 147.400 C 288.689 149.160,289.043 150.929,289.257 151.331 C 289.778 152.311,289.770 169.963,289.248 171.224 C 289.026 171.761,288.729 173.594,288.588 175.297 C 288.447 177.001,288.167 178.496,287.966 178.621 C 287.765 178.745,287.600 179.456,287.600 180.200 C 287.600 180.944,287.420 181.664,287.200 181.800 C 286.980 181.936,286.800 182.373,286.800 182.771 C 286.800 183.521,285.473 187.991,284.833 189.400 C 284.633 189.840,283.926 191.550,283.262 193.200 C 280.724 199.510,274.808 209.282,271.006 213.444 C 267.820 216.933,267.836 216.773,270.387 219.600 C 271.479 220.810,272.379 221.907,272.386 222.038 C 272.394 222.169,272.857 222.799,273.416 223.438 C 273.974 224.077,274.823 225.230,275.301 226.000 C 275.779 226.770,276.402 227.638,276.685 227.929 C 276.968 228.219,277.200 228.714,277.200 229.029 C 277.200 229.343,277.359 229.600,277.553 229.600 C 277.748 229.600,278.016 229.915,278.150 230.300 C 278.283 230.685,278.934 231.900,279.596 233.000 C 281.128 235.544,281.531 236.390,283.981 242.200 C 284.167 242.640,284.607 243.657,284.959 244.460 C 285.312 245.264,285.600 246.263,285.600 246.680 C 285.600 247.098,285.761 247.611,285.958 247.820 C 286.155 248.029,286.525 249.100,286.781 250.200 C 287.036 251.300,287.430 252.920,287.656 253.800 C 287.882 254.680,288.245 256.660,288.464 258.200 C 288.683 259.740,289.073 261.720,289.331 262.600 C 289.670 263.757,289.800 271.957,289.800 292.200 L 289.800 320.200 263.600 320.200 L 237.400 320.200 237.176 294.200 C 236.958 268.826,236.798 265.630,235.611 263.000 C 235.413 262.560,235.125 261.750,234.971 261.200 C 234.818 260.650,234.581 260.110,234.446 260.000 C 234.311 259.890,233.840 259.080,233.400 258.200 C 232.605 256.609,232.257 256.081,231.300 255.015 C 231.025 254.708,230.800 254.352,230.800 254.223 C 230.800 253.961,227.552 250.726,225.766 249.210 C 224.294 247.961,218.200 244.800,217.264 244.800 C 216.877 244.800,216.389 244.631,216.180 244.423 C 215.322 243.573,206.534 243.200,187.360 243.200 L 167.204 243.200 167.102 281.700 L 167.000 320.200 139.023 320.303 C 123.635 320.359,110.899 320.259,110.719 320.079 C 110.348 319.708,109.931 80.203,110.301 79.833 C 110.752 79.381,216.817 79.860,219.600 80.326 M167.200 161.211 L 167.200 190.436 190.700 190.306 C 209.409 190.203,214.485 190.065,215.600 189.628 C 216.370 189.327,217.360 188.943,217.800 188.775 C 225.872 185.695,235.200 176.421,235.200 171.476 C 235.200 171.104,235.353 170.800,235.541 170.800 C 237.292 170.800,237.349 155.685,235.612 151.800 C 235.415 151.360,234.936 150.280,234.547 149.400 C 231.790 143.161,225.629 137.074,219.600 134.633 C 218.610 134.232,217.440 133.748,217.000 133.558 C 214.445 132.451,210.584 132.251,189.300 132.121 L 167.200 131.987 167.200 161.211 " stroke="none" fill="#fbebcb" fill-rule="evenodd"></path><path id="path3" d="M111.105 161.400 L 111.000 190.800 138.900 190.800 L 166.800 190.800 166.800 161.400 L 166.800 132.000 139.005 132.000 L 111.210 132.000 111.105 161.400 M110.996 243.533 C 111.108 243.826,111.200 261.061,111.200 281.833 L 111.200 319.600 139.000 319.600 L 166.800 319.600 166.800 281.300 L 166.800 243.000 138.796 243.000 C 115.639 243.000,110.827 243.092,110.996 243.533 " stroke="none" fill="#dc9494" fill-rule="evenodd"></path><path id="path4" d="M110.589 106.000 C 110.589 120.190,110.639 125.995,110.700 118.900 C 110.761 111.805,110.761 100.195,110.700 93.100 C 110.639 86.005,110.589 91.810,110.589 106.000 M110.990 161.200 C 110.990 177.370,111.039 183.985,111.100 175.900 C 111.160 167.815,111.160 154.585,111.100 146.500 C 111.039 138.415,110.990 145.030,110.990 161.200 M110.589 216.800 C 110.589 230.990,110.639 236.795,110.700 229.700 C 110.761 222.605,110.761 210.995,110.700 203.900 C 110.639 196.805,110.589 202.610,110.589 216.800 M110.898 281.700 L 110.800 320.000 138.900 319.903 L 167.000 319.806 139.102 319.700 L 111.204 319.595 111.100 281.497 L 110.996 243.400 110.898 281.700 " stroke="none" fill="#dc949c" fill-rule="evenodd"></path><path id="path5" d="M209.633 80.147 C 209.725 80.229,211.600 80.392,213.800 80.510 C 216.571 80.658,217.185 80.624,215.800 80.397 C 213.749 80.062,209.334 79.883,209.633 80.147 M221.633 81.347 C 221.725 81.428,222.520 81.604,223.400 81.738 C 224.515 81.907,224.758 81.871,224.200 81.619 C 223.432 81.271,221.290 81.044,221.633 81.347 M233.600 84.333 C 233.930 84.536,234.650 84.824,235.200 84.971 C 235.895 85.157,236.017 85.125,235.600 84.867 C 235.270 84.664,234.550 84.376,234.000 84.229 C 233.305 84.043,233.183 84.075,233.600 84.333 M236.800 85.431 C 236.800 85.701,238.878 86.456,239.076 86.257 C 239.167 86.167,238.692 85.901,238.020 85.667 C 237.349 85.433,236.800 85.327,236.800 85.431 M241.200 87.400 C 242.190 87.930,243.180 88.364,243.400 88.364 C 243.620 88.364,242.990 87.930,242.000 87.400 C 241.010 86.870,240.020 86.436,239.800 86.436 C 239.580 86.436,240.210 86.870,241.200 87.400 M250.269 92.032 C 250.766 92.633,253.200 94.164,253.200 93.876 C 253.200 93.783,252.435 93.202,251.500 92.585 C 250.565 91.968,250.011 91.720,250.269 92.032 M265.200 103.800 C 265.946 104.570,266.647 105.200,266.757 105.200 C 266.867 105.200,266.346 104.570,265.600 103.800 C 264.854 103.030,264.153 102.400,264.043 102.400 C 263.933 102.400,264.454 103.030,265.200 103.800 M269.765 108.900 C 270.828 110.165,271.780 111.200,271.882 111.200 C 272.179 111.200,269.777 108.277,268.760 107.400 C 268.250 106.960,268.702 107.635,269.765 108.900 M209.233 131.746 C 209.325 131.826,210.570 131.987,212.000 132.102 C 213.527 132.226,214.270 132.178,213.800 131.985 C 213.026 131.667,208.896 131.451,209.233 131.746 M215.800 132.800 C 216.240 132.989,216.870 133.144,217.200 133.144 C 217.578 133.144,217.504 133.017,217.000 132.800 C 216.560 132.611,215.930 132.456,215.600 132.456 C 215.222 132.456,215.296 132.583,215.800 132.800 M223.200 135.718 C 223.200 135.799,224.055 136.449,225.100 137.164 C 226.538 138.148,226.708 138.208,225.800 137.412 C 224.592 136.354,223.200 135.447,223.200 135.718 M228.800 140.200 C 229.546 140.970,230.247 141.600,230.357 141.600 C 230.467 141.600,229.946 140.970,229.200 140.200 C 228.454 139.430,227.753 138.800,227.643 138.800 C 227.533 138.800,228.054 139.430,228.800 140.200 M286.244 140.200 C 286.573 141.671,286.802 141.990,286.794 140.967 C 286.791 140.545,286.605 139.930,286.382 139.600 C 286.085 139.162,286.048 139.324,286.244 140.200 M287.268 144.200 C 287.262 144.640,287.411 145.360,287.600 145.800 C 288.038 146.819,288.038 145.768,287.600 144.400 C 287.343 143.596,287.277 143.557,287.268 144.200 M234.481 148.191 C 234.959 149.176,235.419 149.914,235.503 149.830 C 235.684 149.649,234.068 146.400,233.797 146.400 C 233.694 146.400,234.002 147.206,234.481 148.191 M288.509 151.600 C 288.509 152.590,288.587 152.995,288.682 152.500 C 288.778 152.005,288.778 151.195,288.682 150.700 C 288.587 150.205,288.509 150.610,288.509 151.600 M235.663 150.600 C 235.662 150.820,235.903 151.630,236.200 152.400 C 236.497 153.170,236.745 153.530,236.752 153.200 C 236.758 152.870,236.517 152.060,236.214 151.400 C 235.912 150.740,235.664 150.380,235.663 150.600 M288.893 154.800 C 288.893 155.570,288.975 155.885,289.076 155.500 C 289.176 155.115,289.176 154.485,289.076 154.100 C 288.975 153.715,288.893 154.030,288.893 154.800 M237.068 155.800 C 237.371 157.777,237.602 158.114,237.594 156.567 C 237.591 155.925,237.416 155.130,237.205 154.800 C 236.945 154.391,236.901 154.710,237.068 155.800 M237.714 161.400 C 237.717 162.500,237.795 162.903,237.887 162.295 C 237.979 161.686,237.977 160.786,237.882 160.295 C 237.787 159.803,237.711 160.300,237.714 161.400 M237.249 165.800 C 237.216 166.240,237.096 167.050,236.983 167.600 L 236.777 168.600 237.206 167.619 C 237.442 167.079,237.561 166.269,237.472 165.819 C 237.313 165.021,237.307 165.021,237.249 165.800 M288.893 168.000 C 288.893 168.770,288.975 169.085,289.076 168.700 C 289.176 168.315,289.176 167.685,289.076 167.300 C 288.975 166.915,288.893 167.230,288.893 168.000 M288.509 171.200 C 288.509 172.190,288.587 172.595,288.682 172.100 C 288.778 171.605,288.778 170.795,288.682 170.300 C 288.587 169.805,288.509 170.210,288.509 171.200 M287.450 177.250 C 287.117 178.917,287.440 179.240,287.800 177.600 C 287.952 176.909,287.993 176.259,287.891 176.158 C 287.789 176.056,287.591 176.547,287.450 177.250 M231.863 178.900 C 230.602 180.658,230.560 180.772,231.606 179.600 C 232.783 178.282,233.785 176.800,233.499 176.800 C 233.429 176.800,232.692 177.745,231.863 178.900 M286.229 182.229 C 286.081 182.815,286.038 183.372,286.132 183.466 C 286.227 183.560,286.424 183.158,286.571 182.571 C 286.719 181.985,286.762 181.428,286.668 181.334 C 286.573 181.240,286.376 181.642,286.229 182.229 M226.594 184.312 C 225.931 184.910,224.941 185.723,224.394 186.117 C 223.437 186.808,223.449 186.808,224.718 186.121 C 225.443 185.728,226.511 184.910,227.093 184.303 C 228.443 182.894,228.160 182.899,226.594 184.312 M213.800 190.400 C 212.781 190.838,213.832 190.838,215.200 190.400 C 216.004 190.143,216.043 190.077,215.400 190.068 C 214.960 190.062,214.240 190.211,213.800 190.400 M208.700 191.082 C 209.195 191.178,210.005 191.178,210.500 191.082 C 210.995 190.987,210.590 190.909,209.600 190.909 C 208.610 190.909,208.205 190.987,208.700 191.082 M273.184 209.300 C 272.022 210.895,271.344 211.974,271.679 211.698 C 272.357 211.138,275.752 206.400,275.475 206.400 C 275.378 206.400,274.347 207.705,273.184 209.300 M268.001 215.798 C 267.486 216.348,267.139 216.864,267.232 216.946 C 267.324 217.028,267.819 216.578,268.330 215.947 C 269.476 214.535,269.274 214.444,268.001 215.798 M270.155 220.519 C 271.003 221.553,271.780 222.400,271.882 222.400 C 272.155 222.400,269.621 219.260,269.077 218.924 C 268.822 218.766,269.307 219.484,270.155 220.519 M283.267 242.420 C 283.501 243.092,283.767 243.567,283.857 243.476 C 284.056 243.278,283.301 241.200,283.031 241.200 C 282.927 241.200,283.033 241.749,283.267 242.420 M170.800 242.682 C 180.288 242.935,213.186 242.981,212.327 242.740 C 211.817 242.597,201.320 242.500,189.000 242.525 C 176.680 242.550,168.490 242.620,170.800 242.682 M222.800 246.524 C 222.800 246.617,223.565 247.198,224.500 247.815 C 225.435 248.432,225.989 248.680,225.731 248.368 C 225.234 247.767,222.800 246.236,222.800 246.524 M285.029 247.200 C 285.176 247.750,285.464 248.470,285.667 248.800 C 285.925 249.217,285.957 249.095,285.771 248.400 C 285.624 247.850,285.336 247.130,285.133 246.800 C 284.875 246.383,284.843 246.505,285.029 247.200 M228.600 251.200 C 229.906 252.520,231.065 253.600,231.175 253.600 C 231.285 253.600,230.306 252.520,229.000 251.200 C 227.694 249.880,226.535 248.800,226.425 248.800 C 226.315 248.800,227.294 249.880,228.600 251.200 M286.056 250.400 C 286.056 250.730,286.211 251.360,286.400 251.800 C 286.617 252.304,286.744 252.378,286.744 252.000 C 286.744 251.670,286.589 251.040,286.400 250.600 C 286.183 250.096,286.056 250.022,286.056 250.400 M287.268 255.400 C 287.262 255.840,287.411 256.560,287.600 257.000 C 288.038 258.019,288.038 256.968,287.600 255.600 C 287.343 254.796,287.277 254.757,287.268 255.400 M288.430 262.233 C 288.446 263.095,288.613 264.610,288.801 265.600 C 289.058 266.953,289.088 266.606,288.923 264.200 C 288.690 260.822,288.379 259.582,288.430 262.233 M237.058 266.800 C 237.375 268.525,237.602 268.851,237.594 267.567 C 237.591 267.035,237.411 266.330,237.194 266.000 C 236.918 265.578,236.877 265.815,237.058 266.800 M237.692 295.300 C 237.641 308.885,237.735 320.000,237.900 320.000 C 238.172 320.000,238.168 302.176,237.891 279.400 C 237.832 274.560,237.743 281.715,237.692 295.300 " stroke="none" fill="#928497" fill-rule="evenodd"></path><path id="path6" d="M177.300 131.900 C 183.185 131.962,192.815 131.962,198.700 131.900 C 204.585 131.837,199.770 131.786,188.000 131.786 C 176.230 131.786,171.415 131.837,177.300 131.900 M228.400 140.125 C 228.400 140.194,228.985 140.779,229.700 141.425 L 231.000 142.600 229.825 141.300 C 228.730 140.088,228.400 139.816,228.400 140.125 M237.301 159.000 C 237.305 159.880,237.387 160.193,237.483 159.695 C 237.579 159.198,237.575 158.478,237.475 158.095 C 237.375 157.713,237.296 158.120,237.301 159.000 M289.346 161.400 C 289.347 163.600,289.414 164.449,289.495 163.287 C 289.576 162.124,289.576 160.324,289.493 159.287 C 289.411 158.249,289.345 159.200,289.346 161.400 M237.301 163.800 C 237.305 164.680,237.387 164.993,237.483 164.495 C 237.579 163.998,237.575 163.278,237.475 162.895 C 237.375 162.513,237.296 162.920,237.301 163.800 M177.300 191.100 C 182.965 191.162,192.235 191.162,197.900 191.100 C 203.565 191.037,198.930 190.986,187.600 190.986 C 176.270 190.986,171.635 191.037,177.300 191.100 M237.309 270.000 C 237.309 270.990,237.387 271.395,237.482 270.900 C 237.578 270.405,237.578 269.595,237.482 269.100 C 237.387 268.605,237.309 269.010,237.309 270.000 M289.389 294.400 C 289.389 308.590,289.439 314.395,289.500 307.300 C 289.561 300.205,289.561 288.595,289.500 281.500 C 289.439 274.405,289.389 280.210,289.389 294.400 " stroke="none" fill="#ad9fa4" fill-rule="evenodd"></path><path id="path7" d="M178.328 79.900 C 184.559 79.962,194.639 79.962,200.728 79.900 C 206.818 79.838,201.720 79.787,189.400 79.787 C 177.080 79.787,172.098 79.838,178.328 79.900 M166.990 161.200 C 166.990 177.370,167.039 183.985,167.100 175.900 C 167.160 167.815,167.160 154.585,167.100 146.500 C 167.039 138.415,166.990 145.030,166.990 161.200 M289.320 155.600 C 289.320 156.810,289.395 157.305,289.487 156.700 C 289.578 156.095,289.578 155.105,289.487 154.500 C 289.395 153.895,289.320 154.390,289.320 155.600 M289.320 167.200 C 289.320 168.410,289.395 168.905,289.487 168.300 C 289.578 167.695,289.578 166.705,289.487 166.100 C 289.395 165.495,289.320 165.990,289.320 167.200 M208.900 190.687 C 209.505 190.778,210.495 190.778,211.100 190.687 C 211.705 190.595,211.210 190.520,210.000 190.520 C 208.790 190.520,208.295 190.595,208.900 190.687 M166.984 243.300 C 166.879 243.575,166.841 260.900,166.899 281.800 L 167.004 319.800 167.102 281.503 L 167.200 243.207 188.700 243.100 L 210.200 242.993 188.687 242.896 C 171.774 242.821,167.134 242.907,166.984 243.300 M289.320 266.800 C 289.320 268.010,289.395 268.505,289.487 267.900 C 289.578 267.295,289.578 266.305,289.487 265.700 C 289.395 265.095,289.320 265.590,289.320 266.800 M237.388 295.800 C 237.388 309.220,237.438 314.652,237.500 307.871 C 237.561 301.090,237.561 290.110,237.500 283.471 C 237.438 276.832,237.388 282.380,237.388 295.800 M250.700 320.300 C 257.795 320.361,269.405 320.361,276.500 320.300 C 283.595 320.239,277.790 320.189,263.600 320.189 C 249.410 320.189,243.605 320.239,250.700 320.300 " stroke="none" fill="#d0c2b9" fill-rule="evenodd"></path><path id="path8" d="M110.144 80.201 C 110.017 80.532,110.093 105.507,110.313 135.701 L 110.713 190.600 110.513 135.303 L 110.314 80.005 138.857 79.900 L 167.400 79.795 138.887 79.697 C 113.825 79.612,110.347 79.673,110.144 80.201 M212.700 79.889 C 213.415 79.978,214.585 79.978,215.300 79.889 C 216.015 79.801,215.430 79.728,214.000 79.728 C 212.570 79.728,211.985 79.801,212.700 79.889 M228.400 140.600 C 229.146 141.370,229.847 142.000,229.957 142.000 C 230.067 142.000,229.546 141.370,228.800 140.600 C 228.054 139.830,227.353 139.200,227.243 139.200 C 227.133 139.200,227.654 139.830,228.400 140.600 M289.152 152.487 C 289.337 153.598,289.393 153.655,289.519 152.854 C 289.601 152.333,289.503 151.743,289.301 151.541 C 289.079 151.319,289.021 151.693,289.152 152.487 M287.952 177.513 C 287.821 178.307,287.879 178.681,288.101 178.459 C 288.303 178.257,288.401 177.667,288.319 177.146 C 288.193 176.345,288.137 176.402,287.952 177.513 M177.300 190.700 C 182.965 190.762,192.235 190.762,197.900 190.700 C 203.565 190.637,198.930 190.586,187.600 190.586 C 176.270 190.586,171.635 190.637,177.300 190.700 M110.189 216.800 C 110.189 231.210,110.239 237.105,110.300 229.900 C 110.361 222.695,110.361 210.905,110.300 203.700 C 110.239 196.495,110.189 202.390,110.189 216.800 M110.597 281.800 L 110.600 320.200 138.577 320.303 C 153.965 320.359,166.691 320.269,166.857 320.103 C 167.024 319.936,154.480 319.847,138.982 319.905 L 110.804 320.011 110.699 281.705 L 110.594 243.400 110.597 281.800 M210.105 243.487 C 210.714 243.579,211.614 243.577,212.105 243.482 C 212.597 243.387,212.100 243.311,211.000 243.314 C 209.900 243.317,209.497 243.395,210.105 243.487 M289.058 263.200 C 289.375 264.925,289.602 265.251,289.594 263.967 C 289.591 263.435,289.411 262.730,289.194 262.400 C 288.918 261.978,288.877 262.215,289.058 263.200 M289.600 295.880 C 289.490 309.344,289.536 320.224,289.703 320.057 C 289.870 319.890,289.960 308.874,289.903 295.577 L 289.800 271.400 289.600 295.880 " stroke="none" fill="#e4d4c4" fill-rule="evenodd"></path></g></svg>